SplineFontDB: 3.2
FontName: Agave-Italic
FullName: Agave Italic
FamilyName: Agave
Weight: Regular
Copyright: Copyright 2013-2026 type agaric <agaric@pm.me>
Version: 38
ItalicAngle: -10
UnderlinePosition: -384
UnderlineWidth: 128
Ascent: 1536
Descent: 512
InvalidEm: 0
sfntRevision: 0x00260000
LayerCount: 2
Layer: 0 1 "Back" 1
Layer: 1 1 "Fore" 0
XUID: [1021 584 1762956521 3909442]
StyleMap: 0x0001
FSType: 0
OS2Version: 0
OS2_WeightWidthSlopeOnly: 0
OS2_UseTypoMetrics: 1
CreationTime: 1603808863
ModificationTime: 1782121167
PfmFamily: 49
TTFWeight: 400
TTFWidth: 5
LineGap: 0
VLineGap: 0
Panose: 2 11 5 9 3 6 4 2 2 3
OS2TypoAscent: 1536
OS2TypoAOffset: 0
OS2TypoDescent: -512
OS2TypoDOffset: 0
OS2TypoLinegap: 0
OS2WinAscent: 1536
OS2WinAOffset: 0
OS2WinDescent: 512
OS2WinDOffset: 0
HheadAscent: 1536
HheadAOffset: 0
HheadDescent: -512
HheadDOffset: 0
OS2SubXSize: 1403
OS2SubYSize: 1224
OS2SubXOff: 0
OS2SubYOff: 120
OS2SupXSize: 1403
OS2SupYSize: 1224
OS2SupXOff: 0
OS2SupYOff: 648
OS2StrikeYSize: 128
OS2StrikeYPos: 512
OS2CapHeight: 1280
OS2XHeight: 1024
OS2FamilyClass: 1285
OS2Vendor: 'agrc'
MarkAttachClasses: 1
DEI: 91125

StartChar: one
Encoding: 49 49 0
Width: 2048
Flags: H
LayerCount: 2
Fore
SplineSet
737.698242188 1280 m 0
 907.698242188 1280 l 0
 682 0 l 0
 512 0 l 0
 695.379882812 1040 l 0
 422.47265625 808 l 0
 323.631835938 928 l 0
 737.698242188 1280 l 0
EndSplineSet
EndChar

StartChar: i
Encoding: 105 105 1
Width: 2048
Flags: H
LayerCount: 2
Fore
SplineSet
323.102539062 925 m 0
 760.102539062 925 l 0
 624.68359375 157 l 0
 923.68359375 157 l 0
 896 0 l 0
 128 0 l 0
 155.68359375 157 l 0
 454.68359375 157 l 0
 562.418945312 768 l 0
 295.418945312 768 l 0
 323.102539062 925 l 0
568.2734375 1374 m 0
 869.2734375 1374 l 0
 836.4765625 1188 l 0
 535.4765625 1188 l 0
 568.2734375 1374 l 0
EndSplineSet
EndChar

StartChar: I
Encoding: 73 73 2
Width: 2048
Flags: H
LayerCount: 2
Fore
SplineSet
385.698242188 1280 m 0
 1089.69824219 1280 l 0
 1062.015625 1123 l 0
 795.015625 1123 l 0
 624.68359375 157 l 0
 891.68359375 157 l 0
 864 0 l 0
 160 0 l 0
 187.68359375 157 l 0
 454.68359375 157 l 0
 625.015625 1123 l 0
 358.015625 1123 l 0
 385.698242188 1280 l 0
EndSplineSet
EndChar

StartChar: l
Encoding: 108 108 3
Width: 2048
Flags: H
LayerCount: 2
Fore
SplineSet
385.698242188 1280 m 0
 822.698242188 1280 l 0
 624.68359375 157 l 0
 923.68359375 157 l 0
 896 0 l 0
 128 0 l 0
 155.68359375 157 l 0
 454.68359375 157 l 0
 625.015625 1123 l 0
 358.015625 1123 l 0
 385.698242188 1280 l 0
EndSplineSet
EndChar

StartChar: hyphen
Encoding: 45 45 4
Width: 2048
Flags: H
LayerCount: 2
Fore
SplineSet
318.779296875 719 m 0
 958.779296875 719 l 0
 930.919921875 561 l 0
 290.919921875 561 l 0
 318.779296875 719 l 0
EndSplineSet
EndChar

StartChar: o
Encoding: 111 111 5
Width: 2048
Flags: H
LayerCount: 2
Fore
SplineSet
667.696289062 883 m 0
 539.696289062 883 539.696289062 883 457.62109375 797.5 c 0
 375.544921875 712 375.544921875 712 340.279296875 512 c 0
 305.013671875 312 305.013671875 312 356.938476562 226.5 c 0
 408.862304688 141 408.862304688 141 536.862304688 141 c 0
 664.862304688 141 664.862304688 141 746.938476562 226.5 c 0
 829.013671875 312 829.013671875 312 864.279296875 512 c 0
 899.544921875 712 899.544921875 712 847.62109375 797.5 c 0
 795.696289062 883 795.696289062 883 667.696289062 883 c 0
170.279296875 512 m 0
 196.0234375 658 196.0234375 658 243.684570312 761 c 0
 291.346679688 864 291.346679688 864 359.514648438 924.5 c 0
 427.681640625 985 427.681640625 985 509.53125 1012.5 c 0
 591.379882812 1040 591.379882812 1040 695.379882812 1040 c 0
 799.379882812 1040 799.379882812 1040 871.53125 1012.5 c 0
 943.681640625 985 943.681640625 985 990.514648438 924.5 c 0
 1037.34667969 864 1037.34667969 864 1048.68457031 761 c 0
 1060.0234375 658 1060.0234375 658 1034.27929688 512 c 0
 1008.53613281 366 1008.53613281 366 960.874023438 263 c 0
 913.211914062 160 913.211914062 160 845.044921875 99.5 c 0
 776.876953125 39 776.876953125 39 695.02734375 11.5 c 0
 613.178710938 -16 613.178710938 -16 509.178710938 -16 c 0
 405.178710938 -16 405.178710938 -16 333.02734375 11.5 c 0
 260.876953125 39 260.876953125 39 214.044921875 99.5 c 0
 167.211914062 160 167.211914062 160 155.874023438 263 c 0
 144.536132812 366 144.536132812 366 170.279296875 512 c 0
EndSplineSet
EndChar

StartChar: bar
Encoding: 124 124 6
Width: 2048
Flags: H
LayerCount: 2
Fore
SplineSet
551.860351562 -256 m 0
 381.860351562 -256 l 0
 680.381835938 1437 l 0
 850.381835938 1437 l 0
 551.860351562 -256 l 0
EndSplineSet
EndChar

StartChar: .notdef
Encoding: 65536 -1 8
Width: 1024
VWidth: 0
Flags: W
LayerCount: 2
Fore
SplineSet
320 1280 m 2,0,-1
 433 1280 l 1,1,-1
 433 1152 l 1,2,-1
 320 1152 l 2,3,4
 267 1152 267 1152 229.5 1114.5 c 128,-1,5
 192 1077 192 1077 192 1024 c 2,6,-1
 192 768 l 1,7,-1
 64 768 l 1,8,-1
 64 1024 l 2,9,10
 64 1130 64 1130 139 1205 c 128,-1,11
 214 1280 214 1280 320 1280 c 2,0,-1
591 1280 m 1,12,-1
 704 1280 l 2,13,14
 810 1280 810 1280 885 1205 c 128,-1,15
 960 1130 960 1130 960 1024 c 2,16,-1
 960 768 l 1,17,-1
 832 768 l 1,18,-1
 832 1024 l 2,19,20
 832 1077 832 1077 794.5 1114.5 c 128,-1,21
 757 1152 757 1152 704 1152 c 2,22,-1
 591 1152 l 1,23,-1
 591 1280 l 1,12,-1
64 512 m 1,24,-1
 192 512 l 1,25,-1
 192 256 l 2,26,27
 192 203 192 203 229.5 165.5 c 128,-1,28
 267 128 267 128 320 128 c 2,29,-1
 433 128 l 1,30,-1
 433 0 l 1,31,-1
 320 0 l 2,32,33
 214 0 214 0 139 75 c 128,-1,34
 64 150 64 150 64 256 c 2,35,-1
 64 512 l 1,24,-1
832 512 m 1,36,-1
 960 512 l 1,37,-1
 960 256 l 2,38,39
 960 150 960 150 885 75 c 128,-1,40
 810 0 810 0 704 0 c 2,41,-1
 591 0 l 1,42,-1
 591 128 l 1,43,-1
 704 128 l 2,44,45
 757 128 757 128 794.5 165.5 c 128,-1,46
 832 203 832 203 832 256 c 2,47,-1
 832 512 l 1,36,-1
EndSplineSet
EndChar

StartChar: agave.Aduck
Encoding: 65537 -1 9
Width: 1024
VWidth: 0
Flags: W
LayerCount: 2
Fore
SplineSet
410 1152 m 1,0,-1
 614 1152 l 1,1,-1
 960 0 l 1,2,-1
 783 0 l 1,3,-1
 706 256 l 1,4,-1
 318 256 l 1,5,-1
 241 0 l 1,6,-1
 64 0 l 1,7,-1
 410 1152 l 1,0,-1
512 975 m 1,8,-1
 481 798 l 1,9,-1
 365 413 l 1,10,-1
 659 413 l 1,11,-1
 543 798 l 1,12,-1
 512 975 l 1,8,-1
EndSplineSet
EndChar

StartChar: agave.Bduck
Encoding: 65538 -1 10
Width: 1024
VWidth: 0
Flags: W
LayerCount: 2
Fore
SplineSet
128 1152 m 1,0,-1
 384 1152 l 2,1,2
 611 1152 611 1152 729.5 1078 c 128,-1,3
 848 1004 848 1004 848 832 c 0,4,5
 848 782 848 782 830.5 741 c 128,-1,6
 813 700 813 700 788 676.5 c 128,-1,7
 763 653 763 653 738 636.5 c 128,-1,8
 713 620 713 620 695.5 614.5 c 2,9,-1
 678 609 l 1,10,11
 689 607 689 607 707 602 c 128,-1,12
 725 597 725 597 770.5 575.5 c 128,-1,13
 816 554 816 554 851.5 526 c 128,-1,14
 887 498 887 498 915.5 447 c 128,-1,15
 944 396 944 396 944 335 c 0,16,17
 944 155 944 155 801 77.5 c 128,-1,18
 658 0 658 0 384 0 c 2,19,-1
 128 0 l 1,20,-1
 128 1152 l 1,0,-1
298 995 m 1,21,-1
 298 669 l 1,22,-1
 384 669 l 2,23,24
 521 669 521 669 599.5 712.5 c 128,-1,25
 678 756 678 756 678 832 c 128,-1,26
 678 908 678 908 599.5 951.5 c 128,-1,27
 521 995 521 995 384 995 c 2,28,-1
 298 995 l 1,21,-1
298 512 m 1,29,-1
 298 157 l 1,30,-1
 384 157 l 2,31,32
 479 157 479 157 547 165 c 128,-1,33
 615 173 615 173 668.5 192.5 c 128,-1,34
 722 212 722 212 748 247.5 c 128,-1,35
 774 283 774 283 774 335 c 128,-1,36
 774 387 774 387 748 422.5 c 128,-1,37
 722 458 722 458 668.5 477 c 128,-1,38
 615 496 615 496 547.5 504 c 128,-1,39
 480 512 480 512 384 512 c 2,40,-1
 298 512 l 1,29,-1
EndSplineSet
EndChar

StartChar: agave.Cduck
Encoding: 65539 -1 11
Width: 1024
VWidth: 0
Flags: W
LayerCount: 2
Fore
SplineSet
665 1160 m 0,0,1
 729 1160 729 1160 786.5 1156 c 128,-1,2
 844 1152 844 1152 870 1148 c 2,3,-1
 896 1144 l 1,4,-1
 896 995 l 1,5,-1
 665 995 l 2,6,7
 491 995 491 995 390.5 883 c 128,-1,8
 290 771 290 771 290 576 c 0,9,10
 290 350 290 350 385.5 253.5 c 128,-1,11
 481 157 481 157 665 157 c 2,12,-1
 896 157 l 1,13,-1
 896 8 l 1,14,15
 808 -8 808 -8 665 -8 c 0,16,17
 532 -8 532 -8 433.5 22 c 128,-1,18
 335 52 335 52 261 119 c 128,-1,19
 187 186 187 186 149.5 300.5 c 128,-1,20
 112 415 112 415 112 576 c 0,21,22
 112 847 112 847 260.5 1003.5 c 128,-1,23
 409 1160 409 1160 665 1160 c 0,0,1
EndSplineSet
EndChar

StartChar: agave.Dduck
Encoding: 65540 -1 12
Width: 1024
VWidth: 0
Flags: W
LayerCount: 2
Fore
SplineSet
128 1152 m 1,0,-1
 384 1152 l 2,1,2
 518 1152 518 1152 618 1122.5 c 128,-1,3
 718 1093 718 1093 793 1026.5 c 128,-1,4
 868 960 868 960 906 847.5 c 128,-1,5
 944 735 944 735 944 576 c 128,-1,6
 944 417 944 417 906 304.5 c 128,-1,7
 868 192 868 192 793 125.5 c 128,-1,8
 718 59 718 59 618 29.5 c 128,-1,9
 518 0 518 0 384 0 c 2,10,-1
 128 -0 l 1,11,-1
 128 1152 l 1,0,-1
298 995 m 1,12,-1
 298 157 l 1,13,-1
 384 157 l 2,14,15
 571 157 571 157 668.5 253.5 c 128,-1,16
 766 350 766 350 766 576 c 128,-1,17
 766 802 766 802 668.5 898.5 c 128,-1,18
 571 995 571 995 384 995 c 2,19,-1
 298 995 l 1,12,-1
EndSplineSet
EndChar

StartChar: agave.Educk
Encoding: 65541 -1 13
Width: 1024
VWidth: 0
Flags: W
LayerCount: 2
Fore
SplineSet
160 1152 m 1,0,-1
 896 1152 l 1,1,-1
 896 995 l 1,2,-1
 330 995 l 1,3,-1
 330 669 l 1,4,-1
 832 669 l 1,5,-1
 832 512 l 1,6,-1
 330 512 l 1,7,-1
 330 157 l 1,8,-1
 896 157 l 1,9,-1
 896 0 l 1,10,-1
 160 0 l 1,11,-1
 160 1152 l 1,0,-1
EndSplineSet
EndChar

StartChar: agave.Fduck
Encoding: 65542 -1 14
Width: 1024
VWidth: 0
Flags: W
LayerCount: 2
Fore
SplineSet
160 1152 m 1,0,-1
 896 1152 l 1,1,-1
 896 995 l 1,2,-1
 330 995 l 1,3,-1
 330 669 l 1,4,-1
 864 669 l 1,5,-1
 864 512 l 1,6,-1
 330 512 l 1,7,-1
 330 0 l 1,8,-1
 160 0 l 1,9,-1
 160 1152 l 1,0,-1
EndSplineSet
EndChar

StartChar: agave.Gduck
Encoding: 65543 -1 15
Width: 1024
VWidth: 0
Flags: W
LayerCount: 2
Fore
SplineSet
640 1160 m 0,0,1
 707 1160 707 1160 771 1156 c 128,-1,2
 835 1152 835 1152 865.5 1148 c 2,3,-1
 896 1144 l 1,4,-1
 896 995 l 1,5,-1
 640 995 l 2,6,7
 452 995 452 995 355 884.5 c 128,-1,8
 258 774 258 774 258 576 c 0,9,10
 258 458 258 458 279 374.5 c 128,-1,11
 300 291 300 291 341.5 242 c 128,-1,12
 383 193 383 193 438 171 c 128,-1,13
 493 149 493 149 567 149 c 0,14,15
 660 149 660 149 709 174 c 128,-1,16
 758 199 758 199 758 256 c 2,17,-1
 758 512 l 1,18,-1
 512 512 l 1,19,-1
 512 669 l 1,20,-1
 928 669 l 1,21,-1
 928 256 l 2,22,23
 928 114 928 114 836 53 c 128,-1,24
 744 -8 744 -8 567 -8 c 0,25,26
 450 -8 450 -8 363 22 c 128,-1,27
 276 52 276 52 211 119 c 128,-1,28
 146 186 146 186 113 300.5 c 128,-1,29
 80 415 80 415 80 576 c 0,30,31
 80 851 80 851 224.5 1005.5 c 128,-1,32
 369 1160 369 1160 640 1160 c 0,0,1
EndSplineSet
EndChar

StartChar: agave.Hduck
Encoding: 65544 -1 16
Width: 1024
VWidth: 0
Flags: W
LayerCount: 2
Fore
SplineSet
96 1152 m 1,0,-1
 266 1152 l 1,1,-1
 266 669 l 1,2,-1
 758 669 l 1,3,-1
 758 1152 l 1,4,-1
 928 1152 l 1,5,-1
 928 0 l 1,6,-1
 758 0 l 1,7,-1
 758 512 l 1,8,-1
 266 512 l 1,9,-1
 266 0 l 1,10,-1
 96 0 l 1,11,-1
 96 1152 l 1,0,-1
EndSplineSet
EndChar

StartChar: agave.Iduck
Encoding: 65545 -1 17
Width: 1024
VWidth: 0
Flags: W
LayerCount: 2
Fore
SplineSet
160 1152 m 5,0,-1
 864 1152 l 5,1,-1
 864 995 l 5,2,-1
 597 995 l 5,3,-1
 597 157 l 5,4,-1
 864 157 l 5,5,-1
 864 0 l 5,6,-1
 160 0 l 5,7,-1
 160 157 l 5,8,-1
 427 157 l 5,9,-1
 427 995 l 5,10,-1
 160 995 l 5,11,-1
 160 1152 l 5,0,-1
EndSplineSet
EndChar

StartChar: agave.Jduck
Encoding: 65546 -1 18
Width: 1024
VWidth: 0
Flags: W
LayerCount: 2
Fore
SplineSet
192 1152 m 1,0,-1
 832 1152 l 1,1,-1
 832 526 l 2,2,3
 832 378 832 378 798 273.5 c 128,-1,4
 764 169 764 169 697 108 c 128,-1,5
 630 47 630 47 541 19.5 c 128,-1,6
 452 -8 452 -8 332 -8 c 0,7,8
 276 -8 276 -8 225 -4 c 128,-1,9
 174 -0 174 -0 151 4 c 2,10,-1
 128 8 l 1,11,-1
 128 157 l 1,12,-1
 332 157 l 2,13,14
 494 157 494 157 578 242 c 128,-1,15
 662 327 662 327 662 526 c 2,16,-1
 662 995 l 1,17,-1
 192 995 l 1,18,-1
 192 1152 l 1,0,-1
EndSplineSet
EndChar

StartChar: agave.Kduck
Encoding: 65547 -1 19
Width: 1024
VWidth: 0
Flags: W
LayerCount: 2
Fore
SplineSet
741 1152 m 1,0,-1
 960 1152 l 1,1,-1
 491 576 l 1,2,-1
 960 0 l 1,3,-1
 741 0 l 1,4,-1
 298 544 l 1,5,-1
 298 0 l 1,6,-1
 128 0 l 1,7,-1
 128 1152 l 1,8,-1
 298 1152 l 1,9,-1
 298 608 l 1,10,-1
 741 1152 l 1,0,-1
EndSplineSet
EndChar

StartChar: agave.Lduck
Encoding: 65548 -1 20
Width: 1024
VWidth: 0
Flags: W
LayerCount: 2
Fore
SplineSet
160 1152 m 1,0,-1
 330 1152 l 1,1,-1
 330 157 l 1,2,-1
 896 157 l 1,3,-1
 896 0 l 1,4,-1
 160 0 l 1,5,-1
 160 1152 l 1,0,-1
EndSplineSet
EndChar

StartChar: agave.lduck
Encoding: 65549 -1 21
Width: 1024
VWidth: 0
Flags: W
LayerCount: 2
Fore
SplineSet
160 1152 m 1,0,-1
 597 1152 l 1,1,-1
 597 157 l 1,2,-1
 896 157 l 1,3,-1
 896 0 l 1,4,-1
 128 0 l 1,5,-1
 128 157 l 1,6,-1
 427 157 l 1,7,-1
 427 995 l 1,8,-1
 160 995 l 1,9,-1
 160 1152 l 1,0,-1
EndSplineSet
EndChar

StartChar: agave.Mduck
Encoding: 65550 -1 22
Width: 1024
VWidth: 0
Flags: W
LayerCount: 2
Fore
SplineSet
64 1152 m 1,0,-1
 221 1152 l 1,1,-1
 512 702 l 1,2,-1
 803 1152 l 1,3,-1
 960 1152 l 1,4,-1
 960 0 l 1,5,-1
 803 0 l 1,6,-1
 803 883 l 1,7,-1
 563 512 l 1,8,-1
 461 512 l 1,9,-1
 221 883 l 1,10,-1
 221 0 l 1,11,-1
 64 0 l 1,12,-1
 64 1152 l 1,0,-1
EndSplineSet
EndChar

StartChar: agave.Nduck
Encoding: 65551 -1 23
Width: 1024
VWidth: 0
Flags: W
LayerCount: 2
Fore
SplineSet
96 1152 m 1,0,-1
 300 1152 l 1,1,-1
 758 256 l 1,2,-1
 758 1152 l 1,3,-1
 928 1152 l 1,4,-1
 928 0 l 1,5,-1
 723 0 l 1,6,-1
 266 896 l 1,7,-1
 266 0 l 1,8,-1
 96 0 l 1,9,-1
 96 1152 l 1,0,-1
EndSplineSet
EndChar

StartChar: agave.Oduck
Encoding: 65552 -1 24
Width: 1024
VWidth: 0
Flags: W
LayerCount: 2
Fore
SplineSet
16 576 m 128,-1,1
 16 739 16 739 49.5 855 c 128,-1,2
 83 971 83 971 149.5 1039 c 128,-1,3
 216 1107 216 1107 304.5 1137.5 c 128,-1,4
 393 1168 393 1168 512 1168 c 128,-1,5
 631 1168 631 1168 719.5 1137.5 c 128,-1,6
 808 1107 808 1107 874.5 1039 c 128,-1,7
 941 971 941 971 974.5 855 c 128,-1,8
 1008 739 1008 739 1008 576 c 128,-1,9
 1008 413 1008 413 974.5 297 c 128,-1,10
 941 181 941 181 874.5 113 c 128,-1,11
 808 45 808 45 719.5 14.5 c 128,-1,12
 631 -16 631 -16 512 -16 c 128,-1,13
 393 -16 393 -16 304.5 14.5 c 128,-1,14
 216 45 216 45 149.5 113 c 128,-1,15
 83 181 83 181 49.5 297 c 128,-1,0
 16 413 16 413 16 576 c 128,-1,1
512 1011 m 128,-1,17
 434 1011 434 1011 376 988.5 c 128,-1,18
 318 966 318 966 274 916 c 128,-1,19
 230 866 230 866 208 781 c 128,-1,20
 186 696 186 696 186 576 c 128,-1,21
 186 456 186 456 208 371 c 128,-1,22
 230 286 230 286 274 236 c 128,-1,23
 318 186 318 186 376 163.5 c 128,-1,24
 434 141 434 141 512 141 c 128,-1,25
 590 141 590 141 648 163.5 c 128,-1,26
 706 186 706 186 750 236 c 128,-1,27
 794 286 794 286 816 371 c 128,-1,28
 838 456 838 456 838 576 c 128,-1,29
 838 696 838 696 816 781 c 128,-1,30
 794 866 794 866 750 916 c 128,-1,31
 706 966 706 966 648 988.5 c 128,-1,16
 590 1011 590 1011 512 1011 c 128,-1,17
EndSplineSet
EndChar

StartChar: agave.Pduck
Encoding: 65553 -1 25
Width: 1024
VWidth: 0
Flags: W
LayerCount: 2
Fore
SplineSet
160 1152 m 1,0,-1
 604 1152 l 2,1,2
 762 1152 762 1152 853 1066 c 128,-1,3
 944 980 944 980 944 832 c 128,-1,4
 944 684 944 684 825 598 c 128,-1,5
 706 512 706 512 500 512 c 2,6,-1
 330 512 l 1,7,-1
 330 0 l 1,8,-1
 160 0 l 1,9,-1
 160 1152 l 1,0,-1
330 995 m 1,10,-1
 330 669 l 1,11,-1
 500 669 l 2,12,13
 627 669 627 669 700.5 712.5 c 128,-1,14
 774 756 774 756 774 832 c 128,-1,15
 774 908 774 908 728.5 951.5 c 128,-1,16
 683 995 683 995 604 995 c 2,17,-1
 330 995 l 1,10,-1
EndSplineSet
EndChar

StartChar: agave.Rduck
Encoding: 65554 -1 26
Width: 1024
VWidth: 0
Flags: W
LayerCount: 2
Fore
SplineSet
128 1152 m 1,0,-1
 572 1152 l 2,1,2
 739 1152 739 1152 825.5 1078 c 128,-1,3
 912 1004 912 1004 912 832 c 0,4,5
 912 705.021087314 912 705.021087314 856.087732856 632.357814115 c 128,-1,6
 800.175465712 559.694540917 800.175465712 559.694540917 692.443359375 531.634765625 c 1,7,-1
 960 0 l 1,8,-1
 770 0 l 1,9,-1
 512 512 l 1,10,-1
 298 512 l 1,11,-1
 298 0 l 1,12,-1
 128 0 l 1,13,-1
 128 1152 l 1,0,-1
298 995 m 1,14,-1
 298 669 l 1,15,-1
 468 669 l 2,16,17
 602 669 602 669 672 706.5 c 128,-1,18
 742 744 742 744 742 832 c 128,-1,19
 742 920 742 920 698.5 957.5 c 128,-1,20
 655 995 655 995 572 995 c 2,21,-1
 298 995 l 1,14,-1
EndSplineSet
EndChar

StartChar: agave.Sduck
Encoding: 65555 -1 27
Width: 1024
VWidth: 0
Flags: W
LayerCount: 2
Fore
SplineSet
652 1160 m 0,0,1
 719 1160 719 1160 780 1156 c 128,-1,2
 841 1152 841 1152 868.5 1148 c 2,3,-1
 896 1144 l 1,4,-1
 896 995 l 1,5,-1
 652 995 l 2,6,7
 579 995 579 995 527.5 991.5 c 128,-1,8
 476 988 476 988 428.5 978 c 128,-1,9
 381 968 381 968 352.5 951 c 128,-1,10
 324 934 324 934 307 905 c 128,-1,11
 290 876 290 876 290 835 c 0,12,13
 290 783 290 783 326 746 c 128,-1,14
 362 709 362 709 419.5 687 c 128,-1,15
 477 665 477 665 547 645.5 c 128,-1,16
 617 626 617 626 687 602 c 128,-1,17
 757 578 757 578 814.5 545 c 128,-1,18
 872 512 872 512 908 454 c 128,-1,19
 944 396 944 396 944 317 c 0,20,21
 944 237 944 237 924.5 182.5 c 128,-1,22
 905 128 905 128 864.5 90 c 128,-1,23
 824 52 824 52 751.5 31 c 128,-1,24
 679 10 679 10 584.5 1 c 128,-1,25
 490 -8 490 -8 352 -8 c 0,26,27
 282 -8 282 -8 218 -4 c 128,-1,28
 154 -0 154 -0 125 4 c 2,29,-1
 96 8 l 1,30,-1
 96 157 l 1,31,-1
 352 157 l 2,32,33
 595 157 595 157 680.5 187 c 128,-1,34
 766 217 766 217 766 317 c 0,35,36
 766 369 766 369 730 406 c 128,-1,37
 694 443 694 443 636.5 465 c 128,-1,38
 579 487 579 487 509 506.5 c 128,-1,39
 439 526 439 526 369 550 c 128,-1,40
 299 574 299 574 241.5 607 c 128,-1,41
 184 640 184 640 148 698 c 128,-1,42
 112 756 112 756 112 835 c 0,43,44
 112 912 112 912 136.5 969 c 128,-1,45
 161 1026 161 1026 205 1062.5 c 128,-1,46
 249 1099 249 1099 318 1121 c 128,-1,47
 387 1143 387 1143 467 1151.5 c 128,-1,48
 547 1160 547 1160 652 1160 c 0,0,1
EndSplineSet
EndChar

StartChar: agave.Tduck
Encoding: 65556 -1 28
Width: 1024
VWidth: 0
Flags: W
LayerCount: 2
Fore
SplineSet
64 1152 m 1,0,-1
 960 1152 l 1,1,-1
 960 995 l 1,2,-1
 597 995 l 1,3,-1
 597 0 l 1,4,-1
 427 0 l 1,5,-1
 427 995 l 1,6,-1
 64 995 l 1,7,-1
 64 1152 l 1,0,-1
EndSplineSet
EndChar

StartChar: agave.Uduck
Encoding: 65557 -1 29
Width: 1024
VWidth: 0
Flags: W
LayerCount: 2
Fore
SplineSet
32 1152 m 1,0,-1
 202 1152 l 1,1,-1
 202 527 l 2,2,3
 202 309 202 309 269.5 225 c 128,-1,4
 337 141 337 141 512 141 c 128,-1,5
 687 141 687 141 754.5 225 c 128,-1,6
 822 309 822 309 822 527 c 2,7,-1
 822 1152 l 1,8,-1
 992 1152 l 1,9,-1
 992 527 l 2,10,11
 992 372 992 372 968 270 c 128,-1,12
 944 168 944 168 886.5 103 c 128,-1,13
 829 38 829 38 739 11 c 128,-1,14
 649 -16 649 -16 512 -16 c 128,-1,15
 375 -16 375 -16 285 11 c 128,-1,16
 195 38 195 38 137.5 103 c 128,-1,17
 80 168 80 168 56 270 c 128,-1,18
 32 372 32 372 32 527 c 2,19,-1
 32 1152 l 1,0,-1
EndSplineSet
EndChar

StartChar: agave.Vduck
Encoding: 65558 -1 30
Width: 1024
VWidth: 0
Flags: W
LayerCount: 2
Fore
SplineSet
64 1152 m 1,0,-1
 241 1152 l 1,1,-1
 481 354 l 1,2,-1
 512 177 l 1,3,-1
 543 354 l 1,4,-1
 783 1152 l 1,5,-1
 960 1152 l 1,6,-1
 614 0 l 1,7,-1
 410 0 l 1,8,-1
 64 1152 l 1,0,-1
EndSplineSet
EndChar

StartChar: agave.Wduck
Encoding: 65559 -1 31
Width: 1024
VWidth: 0
Flags: W
LayerCount: 2
Fore
SplineSet
32 1152 m 1,0,-1
 190 1152 l 1,1,-1
 267 245 l 1,2,-1
 461 768 l 1,3,-1
 563 768 l 1,4,-1
 758 241 l 1,5,-1
 834 1152 l 1,6,-1
 992 1152 l 1,7,-1
 896 0 l 1,8,-1
 692 0 l 1,9,-1
 512 486 l 1,10,-1
 332 0 l 1,11,-1
 128 0 l 1,12,-1
 32 1152 l 1,0,-1
EndSplineSet
EndChar

StartChar: agave.Xduck
Encoding: 65560 -1 32
Width: 1024
VWidth: 0
Flags: W
LayerCount: 2
Fore
SplineSet
34 1152 m 1,0,-1
 235 1152 l 1,1,-1
 512 731 l 1,2,-1
 789 1152 l 1,3,-1
 992 1152 l 1,4,-1
 614 576 l 1,5,-1
 992 -0 l 1,6,-1
 789 -0 l 1,7,-1
 512 421 l 1,8,-1
 235 -0 l 1,9,-1
 32 -0 l 1,10,-1
 410 576 l 1,11,-1
 34 1152 l 1,0,-1
EndSplineSet
EndChar

StartChar: agave.Yduck
Encoding: 65561 -1 33
Width: 1024
VWidth: 0
Flags: W
LayerCount: 2
Fore
SplineSet
790 1152 m 1,0,-1
 992 1152 l 1,1,-1
 597 542 l 1,2,-1
 597 0 l 1,3,-1
 427 0 l 1,4,-1
 427 542 l 1,5,-1
 32 1152 l 1,6,-1
 234 1152 l 1,7,-1
 512 723 l 1,8,-1
 790 1152 l 1,0,-1
EndSplineSet
EndChar

StartChar: agave.Zduck
Encoding: 65562 -1 34
Width: 1024
VWidth: 0
Flags: W
LayerCount: 2
Fore
SplineSet
128 1152 m 1,0,-1
 896 1152 l 1,1,-1
 896 995 l 1,2,-1
 290 157 l 1,3,-1
 928 157 l 1,4,-1
 928 0 l 1,5,-1
 96 0 l 1,6,-1
 96 157 l 1,7,-1
 702 995 l 1,8,-1
 128 995 l 1,9,-1
 128 1152 l 1,0,-1
EndSplineSet
EndChar

StartChar: agave.AEduck
Encoding: 65563 -1 35
Width: 1024
VWidth: 0
Flags: W
LayerCount: 2
Fore
SplineSet
396.999023438 1152 m 1,0,-1
 992 1152 l 1,1,-1
 992 995 l 1,2,-1
 682 995 l 1,3,-1
 682 669 l 1,4,-1
 960 669 l 1,5,-1
 960 512 l 1,6,-1
 682 512 l 1,7,-1
 682 157 l 1,8,-1
 992 157 l 1,9,-1
 992 0 l 1,10,-1
 512 0 l 1,11,-1
 512 256 l 1,12,-1
 278 256 l 1,13,-1
 197 0 l 1,14,-1
 32 0 l 1,15,-1
 396.999023438 1152 l 1,0,-1
512 995 m 1,16,-1
 328 413 l 1,17,-1
 512 413 l 1,18,-1
 512 995 l 1,16,-1
EndSplineSet
EndChar

StartChar: agave.Oslashduck
Encoding: 65564 -1 36
Width: 1024
VWidth: 0
Flags: W
LayerCount: 2
Fore
SplineSet
815 1280 m 1,0,-1
 960 1280 l 1,1,-1
 846 1066 l 1,2,3
 1008 927 1008 927 1008 576 c 0,4,5
 1008 413 1008 413 974.5 297 c 128,-1,6
 941 181 941 181 874.5 113 c 128,-1,7
 808 45 808 45 719.5 14.5 c 128,-1,8
 631 -16 631 -16 512 -16 c 0,9,10
 381 -16 381 -16 288 20 c 1,11,-1
 209 -128 l 1,12,-1
 64 -128 l 1,13,-1
 178 86 l 1,14,15
 16 225 16 225 16 576 c 0,16,17
 16 739 16 739 49.5 855 c 128,-1,18
 83 971 83 971 149.5 1039 c 128,-1,19
 216 1107 216 1107 304.5 1137.5 c 128,-1,20
 393 1168 393 1168 512 1168 c 0,21,22
 643 1168 643 1168 736 1132 c 1,23,-1
 815 1280 l 1,0,-1
512 1011 m 0,24,25
 434 1011 434 1011 376 988.5 c 128,-1,26
 318 966 318 966 274 916 c 128,-1,27
 230 866 230 866 208 781 c 128,-1,28
 186 696 186 696 186 576 c 0,29,30
 186 354 186 354 264 248 c 1,31,-1
 658 985 l 1,32,33
 597 1011 597 1011 512 1011 c 0,24,25
760 904 m 1,34,-1
 366 167 l 1,35,36
 427 141 427 141 512 141 c 0,37,38
 590 141 590 141 648 163.5 c 128,-1,39
 706 186 706 186 750 236 c 128,-1,40
 794 286 794 286 816 371 c 128,-1,41
 838 456 838 456 838 576 c 0,42,43
 838 798 838 798 760 904 c 1,34,-1
EndSplineSet
EndChar

StartChar: agave.Ezhduck
Encoding: 65565 -1 37
Width: 1024
VWidth: 0
Flags: W
LayerCount: 2
Fore
SplineSet
896 1152 m 1,0,-1
 896 995 l 1,1,-1
 520 669 l 1,2,3
 723 668 723 668 833.5 595.5 c 128,-1,4
 944 523 944 523 944 376 c 0,5,6
 944 270 944 270 904 195 c 128,-1,7
 864 120 864 120 785.5 76 c 128,-1,8
 707 32 707 32 601.5 12 c 128,-1,9
 496 -8 496 -8 355 -8 c 0,10,11
 284 -8 284 -8 219 -4 c 128,-1,12
 154 -0 154 -0 125 4 c 2,13,-1
 96 8 l 1,14,-1
 96 157 l 1,15,-1
 355 157 l 2,16,17
 560 157 560 157 667 207.5 c 128,-1,18
 774 258 774 258 774 376 c 0,19,20
 774 439 774 439 692.5 475.5 c 128,-1,21
 611 512 611 512 469 512 c 2,22,-1
 280 512 l 1,23,-1
 280 669 l 1,24,-1
 656 995 l 1,25,-1
 128 995 l 1,26,-1
 128 1152 l 1,27,-1
 896 1152 l 1,0,-1
EndSplineSet
EndChar

StartChar: agave.Gammaduck
Encoding: 65566 -1 38
Width: 1024
VWidth: 0
Flags: W
LayerCount: 2
Fore
SplineSet
160 0 m 1,0,-1
 160 1152 l 1,1,-1
 896 1152 l 1,2,-1
 896 995 l 1,3,-1
 330 995 l 1,4,-1
 330 0 l 1,5,-1
 160 0 l 1,0,-1
EndSplineSet
EndChar

StartChar: agave.Ucyrduck
Encoding: 65567 -1 39
Width: 1024
VWidth: 0
Flags: W
LayerCount: 2
Fore
SplineSet
805 1152 m 1,0,-1
 992 1152 l 1,1,-1
 571 233 l 2,2,3
 549 185 549 185 538 162.5 c 128,-1,4
 527 140 527 140 508.5 105.5 c 128,-1,5
 490 71 490 71 477 55.5 c 128,-1,6
 464 40 464 40 445 22.5 c 128,-1,7
 426 5 426 5 405.5 -1.5 c 128,-1,8
 385 -8 385 -8 360 -8 c 0,9,10
 323 -8 323 -8 289 -4 c 128,-1,11
 255 -0 255 -0 239.5 4 c 2,12,-1
 224 8 l 1,13,-1
 224 157 l 1,14,15
 262 157 262 157 277.5 157 c 128,-1,16
 293 157 293 157 314.5 163.5 c 128,-1,17
 336 170 336 170 342.5 175 c 128,-1,18
 349 180 349 180 365 202.5 c 128,-1,19
 381 225 381 225 389.5 243.5 c 128,-1,20
 398 262 398 262 419 308 c 1,21,-1
 32 1152 l 1,22,-1
 219 1152 l 1,23,-1
 512 512 l 1,24,-1
 805 1152 l 1,0,-1
EndSplineSet
EndChar

StartChar: agave.Izhitsaduck
Encoding: 65568 -1 40
Width: 1024
VWidth: 0
Flags: W
LayerCount: 2
Fore
SplineSet
32 1152 m 1,0,-1
 211 1152 l 1,1,-1
 473 354 l 1,2,-1
 512 177 l 1,3,-1
 551 354 l 1,4,-1
 747 951 l 2,5,6
 764 1002 764 1002 772.5 1025 c 128,-1,7
 781 1048 781 1048 796.5 1080.5 c 128,-1,8
 812 1113 812 1113 826.5 1126 c 128,-1,9
 841 1139 841 1139 864.5 1149.5 c 128,-1,10
 888 1160 888 1160 918 1160 c 0,11,12
 947 1160 947 1160 973.5 1156 c 128,-1,13
 1000 1152 1000 1152 1012 1148 c 2,14,-1
 1024 1144 l 1,15,-1
 1024 995 l 1,16,17
 962 995 962 995 947.5 983 c 128,-1,18
 933 971 933 971 909 898 c 2,19,-1
 614 0 l 1,20,-1
 410 0 l 1,21,-1
 32 1152 l 1,0,-1
EndSplineSet
EndChar

StartChar: agave.Schwaduck
Encoding: 65569 -1 41
Width: 1024
VWidth: 0
Flags: W
LayerCount: 2
Fore
SplineSet
406 1160 m 0,0,1
 649 1160 649 1160 792.5 997 c 128,-1,2
 936 834 936 834 936 572 c 128,-1,3
 936 310 936 310 821 147 c 128,-1,4
 706 -16 706 -16 512 -16 c 0,5,6
 319 -16 319 -16 207.5 102 c 128,-1,7
 96 220 96 220 96 424 c 2,8,-1
 96 512 l 2,9,10
 96 601 96 601 133 635 c 128,-1,11
 170 669 170 669 266 669 c 2,12,-1
 758 669 l 1,13,14
 758 676 758 676 757 687.5 c 128,-1,15
 756 699 756 699 749.5 733 c 128,-1,16
 743 767 743 767 730.5 798 c 128,-1,17
 718 829 718 829 692 866.5 c 128,-1,18
 666 904 666 904 630 931 c 128,-1,19
 594 958 594 958 536 976.5 c 128,-1,20
 478 995 478 995 406 995 c 2,21,-1
 184 995 l 1,22,-1
 184 1144 l 1,23,24
 269 1160 269 1160 406 1160 c 0,0,1
266 512 m 1,25,-1
 266 424 l 2,26,27
 266 293 266 293 332 217 c 128,-1,28
 398 141 398 141 512 141 c 0,29,30
 562 141 562 141 603 161.5 c 128,-1,31
 644 182 644 182 668.5 214.5 c 128,-1,32
 693 247 693 247 711.5 286.5 c 128,-1,33
 730 326 730 326 738.5 366 c 128,-1,34
 747 406 747 406 752 438.5 c 128,-1,35
 757 471 757 471 757.5 491.5 c 2,36,-1
 758 512 l 1,37,-1
 266 512 l 1,25,-1
EndSplineSet
EndChar

StartChar: agave.Zeduck
Encoding: 65570 -1 42
Width: 1024
VWidth: 0
Flags: W
LayerCount: 2
Fore
SplineSet
160 1144 m 1,0,1
 265 1160 265 1160 435 1160 c 0,2,3
 653 1160 653 1160 766.5 1084.5 c 128,-1,4
 880 1009 880 1009 880 832 c 0,5,6
 880 782 880 782 862.5 741 c 128,-1,7
 845 700 845 700 820 676.5 c 128,-1,8
 795 653 795 653 770 636.5 c 128,-1,9
 745 620 745 620 727.5 614.5 c 2,10,-1
 710 609 l 1,11,12
 718 607 718 607 731.5 602 c 128,-1,13
 745 597 745 597 780 575.5 c 128,-1,14
 815 554 815 554 841.5 526 c 128,-1,15
 868 498 868 498 890 447 c 128,-1,16
 912 396 912 396 912 334 c 0,17,18
 912 150 912 150 790.5 71 c 128,-1,19
 669 -8 669 -8 435 -8 c 0,20,21
 351 -8 351 -8 274 -4 c 128,-1,22
 197 -0 197 -0 162.5 4 c 2,23,-1
 128 8 l 1,24,-1
 128 157 l 1,25,-1
 435 157 l 2,26,27
 586 157 586 157 664 197.5 c 128,-1,28
 742 238 742 238 742 334 c 128,-1,29
 742 430 742 430 655.5 471 c 128,-1,30
 569 512 569 512 402 512 c 2,31,-1
 224 512 l 1,32,-1
 224 669 l 1,33,-1
 390 669 l 2,34,35
 547 669 547 669 628.5 706.5 c 128,-1,36
 710 744 710 744 710 832 c 128,-1,37
 710 920 710 920 640 957.5 c 128,-1,38
 570 995 570 995 435 995 c 2,39,-1
 160 995 l 1,40,-1
 160 1144 l 1,0,1
EndSplineSet
EndChar

StartChar: agave.Otildeduck
Encoding: 65571 -1 43
Width: 1024
VWidth: 0
Flags: W
LayerCount: 2
Fore
SplineSet
512 1168 m 128,-1,1
 631 1168 631 1168 719.5 1137.5 c 128,-1,2
 808 1107 808 1107 874.5 1039 c 128,-1,3
 941 971 941 971 974.5 855 c 128,-1,4
 1008 739 1008 739 1008 576 c 128,-1,5
 1008 413 1008 413 974.5 297 c 128,-1,6
 941 181 941 181 874.5 113 c 128,-1,7
 808 45 808 45 719.5 14.5 c 128,-1,8
 631 -16 631 -16 512 -16 c 128,-1,9
 393 -16 393 -16 304.5 14.5 c 128,-1,10
 216 45 216 45 149.5 113 c 128,-1,11
 83 181 83 181 49.5 297 c 128,-1,12
 16 413 16 413 16 576 c 128,-1,13
 16 739 16 739 49.5 855 c 128,-1,14
 83 971 83 971 149.5 1039 c 128,-1,15
 216 1107 216 1107 304.5 1137.5 c 128,-1,0
 393 1168 393 1168 512 1168 c 128,-1,1
512 1011 m 128,-1,17
 369 1011 369 1011 287.5 931.5 c 128,-1,18
 206 852 206 852 190 669 c 1,19,-1
 834 669 l 1,20,21
 818 852 818 852 736.5 931.5 c 128,-1,16
 655 1011 655 1011 512 1011 c 128,-1,17
188 512 m 1,22,23
 199 313 199 313 281.5 227 c 128,-1,24
 364 141 364 141 512 141 c 128,-1,25
 660 141 660 141 742.5 227 c 128,-1,26
 825 313 825 313 836 512 c 1,27,-1
 188 512 l 1,22,23
EndSplineSet
EndChar

StartChar: agave.Ecyrduck
Encoding: 65572 -1 44
Width: 1024
VWidth: 0
Flags: W
LayerCount: 2
Fore
SplineSet
359 1160 m 0,0,1
 492 1160 492 1160 590.5 1130 c 128,-1,2
 689 1100 689 1100 763 1033 c 128,-1,3
 837 966 837 966 874.5 851.5 c 128,-1,4
 912 737 912 737 912 576 c 0,5,6
 912 305 912 305 763.5 148.5 c 128,-1,7
 615 -8 615 -8 359 -8 c 0,8,9
 295 -8 295 -8 237.5 -4 c 128,-1,10
 180 -0 180 -0 154 4 c 2,11,-1
 128 8 l 1,12,-1
 128 157 l 1,13,-1
 359 157 l 2,14,15
 518 157 518 157 616.5 251 c 128,-1,16
 715 345 715 345 731 512 c 1,17,-1
 192 512 l 1,18,-1
 192 669 l 1,19,-1
 729 669 l 1,20,21
 710 843 710 843 616.5 919 c 128,-1,22
 523 995 523 995 359 995 c 2,23,-1
 128 995 l 1,24,-1
 128 1144 l 1,25,26
 216 1160 216 1160 359 1160 c 0,0,1
EndSplineSet
EndChar

StartChar: agave.Cheduck
Encoding: 65573 -1 45
Width: 1024
VWidth: 0
Flags: W
LayerCount: 2
Fore
SplineSet
896 0 m 1,0,-1
 726 0 l 1,1,-1
 726 520 l 1,2,3
 644 504 644 504 512 504 c 0,4,5
 324 504 324 504 226 595.5 c 128,-1,6
 128 687 128 687 128 902 c 2,7,-1
 128 1152 l 1,8,-1
 298 1152 l 1,9,-1
 298 902 l 2,10,11
 298 776 298 776 352.5 722.5 c 128,-1,12
 407 669 407 669 512 669 c 2,13,-1
 726 669 l 1,14,-1
 726 1152 l 1,15,-1
 896 1152 l 1,16,-1
 896 0 l 1,0,-1
EndSplineSet
EndChar

StartChar: agave.Yeruduck
Encoding: 65574 -1 46
Width: 1024
VWidth: 0
Flags: W
LayerCount: 2
Fore
SplineSet
64 1152 m 1,0,-1
 234 1152 l 1,1,-1
 234 768 l 1,2,-1
 340 768 l 2,3,4
 507 768 507 768 594.5 678.5 c 128,-1,5
 682 589 682 589 682 380 c 0,6,7
 682 172 682 172 595.5 86 c 128,-1,8
 509 0 509 0 340 0 c 2,9,-1
 64 0 l 1,10,-1
 64 1152 l 1,0,-1
790 1152 m 1,11,-1
 960 1152 l 1,12,-1
 960 0 l 1,13,-1
 790 0 l 1,14,-1
 790 1152 l 1,11,-1
234 611 m 1,15,-1
 234 157 l 1,16,-1
 340 157 l 2,17,18
 425 157 425 157 468.5 207 c 128,-1,19
 512 257 512 257 512 380 c 0,20,21
 512 504 512 504 468 557.5 c 128,-1,22
 424 611 424 611 340 611 c 2,23,-1
 234 611 l 1,15,-1
EndSplineSet
EndChar

StartChar: agave.Ohornduck
Encoding: 65575 -1 47
Width: 1024
VWidth: 0
Flags: W
LayerCount: 2
Fore
SplineSet
854 1280 m 1,0,-1
 1024 1280 l 1,1,2
 1024 1070 1024 1070 926 970 c 1,3,4
 1008 829 1008 829 1008 576 c 0,5,6
 1008 413 1008 413 974.5 297 c 128,-1,7
 941 181 941 181 874.5 113 c 128,-1,8
 808 45 808 45 719.5 14.5 c 128,-1,9
 631 -16 631 -16 512 -16 c 128,-1,10
 393 -16 393 -16 304.5 14.5 c 128,-1,11
 216 45 216 45 149.5 113 c 128,-1,12
 83 181 83 181 49.5 297 c 128,-1,13
 16 413 16 413 16 576 c 128,-1,14
 16 739 16 739 49.5 855 c 128,-1,15
 83 971 83 971 149.5 1039 c 128,-1,16
 216 1107 216 1107 304.5 1137.5 c 128,-1,17
 393 1168 393 1168 512 1168 c 0,18,19
 709 1168 709 1168 823 1085 c 1,20,21
 854 1151 854 1151 854 1280 c 1,0,-1
512 1011 m 128,-1,23
 434 1011 434 1011 376 988.5 c 128,-1,24
 318 966 318 966 274 916 c 128,-1,25
 230 866 230 866 208 781 c 128,-1,26
 186 696 186 696 186 576 c 128,-1,27
 186 456 186 456 208 371 c 128,-1,28
 230 286 230 286 274 236 c 128,-1,29
 318 186 318 186 376 163.5 c 128,-1,30
 434 141 434 141 512 141 c 128,-1,31
 590 141 590 141 648 163.5 c 128,-1,32
 706 186 706 186 750 236 c 128,-1,33
 794 286 794 286 816 371 c 128,-1,34
 838 456 838 456 838 576 c 128,-1,35
 838 696 838 696 816 781 c 128,-1,36
 794 866 794 866 750 916 c 128,-1,37
 706 966 706 966 648 988.5 c 128,-1,22
 590 1011 590 1011 512 1011 c 128,-1,23
EndSplineSet
EndChar

StartChar: agave.Uhornduck
Encoding: 65576 -1 48
Width: 1024
VWidth: 0
Flags: W
LayerCount: 2
Fore
SplineSet
854 1280 m 1,0,-1
 1024 1280 l 1,1,2
 1024 1199 1024 1199 1008.5 1133.5 c 128,-1,3
 993 1068 993 1068 970 1029 c 128,-1,4
 947 990 947 990 916 962 c 128,-1,5
 885 934 885 934 860.5 922 c 128,-1,6
 836 910 836 910 810 903 c 1,7,-1
 810 576 l 2,8,9
 810 413 810 413 782.5 297 c 128,-1,10
 755 181 755 181 701 113 c 128,-1,11
 647 45 647 45 574.5 14.5 c 128,-1,12
 502 -16 502 -16 405 -16 c 128,-1,13
 308 -16 308 -16 235.5 14.5 c 128,-1,14
 163 45 163 45 109 113 c 128,-1,15
 55 181 55 181 27.5 297 c 128,-1,16
 0 413 0 413 0 576 c 2,17,-1
 0 1152 l 1,18,-1
 170 1152 l 1,19,-1
 170 576 l 1,20,21
 150 141 150 141 405 141 c 0,22,23
 520 141 520 141 580 241.5 c 128,-1,24
 640 342 640 342 640 576 c 2,25,-1
 640 1152 l 1,26,-1
 810 1152 l 1,27,-1
 810 1062 l 1,28,29
 854 1123 854 1123 854 1280 c 1,0,-1
EndSplineSet
EndChar

StartChar: agave.Omegaduck
Encoding: 65577 -1 49
Width: 1024
VWidth: 0
Flags: W
LayerCount: 2
Fore
SplineSet
512 1168 m 132,-1,1
 623 1168 623 1168 706 1140.5 c 132,-1,2
 789 1113 789 1113 851 1051.5 c 132,-1,3
 913 990 913 990 944.5 885.5 c 132,-1,4
 976 781 976 781 976 634 c 4,5,6
 976 576 976 576 961.5 518.5 c 132,-1,7
 947 461 947 461 924 415.5 c 132,-1,8
 901 370 901 370 873.5 328 c 132,-1,9
 846 286 846 286 818.5 255.5 c 132,-1,10
 791 225 791 225 768 202.5 c 132,-1,11
 745 180 745 180 730.5 168.5 c 6,12,-1
 716 157 l 5,13,-1
 992 157 l 5,14,-1
 992 0 l 5,15,-1
 614 0 l 5,16,-1
 614 256 l 5,17,18
 622 260 622 260 635 268 c 132,-1,19
 648 276 648 276 681 307.5 c 132,-1,20
 714 339 714 339 739 378.5 c 132,-1,21
 764 418 764 418 785 486.5 c 132,-1,22
 806 555 806 555 806 634 c 4,23,24
 806 837 806 837 731 924 c 132,-1,25
 656 1011 656 1011 512 1011 c 132,-1,26
 368 1011 368 1011 293 924 c 132,-1,27
 218 837 218 837 218 634 c 4,28,29
 218 555 218 555 238 487 c 132,-1,30
 258 419 258 419 286 378 c 132,-1,31
 314 337 314 337 342 308 c 132,-1,32
 370 279 370 279 390 267.5 c 6,33,-1
 410 256 l 5,34,-1
 410 0 l 5,35,-1
 32 0 l 5,36,-1
 32 157 l 5,37,-1
 308 157 l 5,38,39
 297 165 297 165 279.5 179.5 c 132,-1,40
 262 194 262 194 217.5 243 c 132,-1,41
 173 292 173 292 138.5 344 c 132,-1,42
 104 396 104 396 76 475.5 c 132,-1,43
 48 555 48 555 48 634 c 4,44,45
 48 781 48 781 79.5 885.5 c 132,-1,46
 111 990 111 990 173 1051.5 c 132,-1,47
 235 1113 235 1113 318 1140.5 c 132,-1,0
 401 1168 401 1168 512 1168 c 132,-1,1
EndSplineSet
EndChar

StartChar: agave.diaresisduck
Encoding: 65578 -1 50
Width: 1024
VWidth: 0
Flags: W
LayerCount: 2
Fore
SplineSet
112 1392 m 128,-1,1
 158 1392 158 1392 191 1359 c 128,-1,2
 224 1326 224 1326 224 1280 c 128,-1,3
 224 1234 224 1234 191 1201 c 128,-1,4
 158 1168 158 1168 112 1168 c 128,-1,5
 66 1168 66 1168 33 1201 c 128,-1,6
 0 1234 0 1234 0 1280 c 128,-1,7
 0 1326 0 1326 33 1359 c 128,-1,0
 66 1392 66 1392 112 1392 c 128,-1,1
912 1392 m 128,-1,9
 958 1392 958 1392 991 1359 c 128,-1,10
 1024 1326 1024 1326 1024 1280 c 128,-1,11
 1024 1234 1024 1234 991 1201 c 128,-1,12
 958 1168 958 1168 912 1168 c 128,-1,13
 866 1168 866 1168 833 1201 c 128,-1,14
 800 1234 800 1234 800 1280 c 128,-1,15
 800 1326 800 1326 833 1359 c 128,-1,8
 866 1392 866 1392 912 1392 c 128,-1,9
EndSplineSet
EndChar

StartChar: slash
Encoding: 47 47 51
Width: 2048
Flags: H
LayerCount: 2
Fore
SplineSet
131.860351562 -256 m 0
 922.381835938 1437 l 0
 1100.38183594 1437 l 0
 308.860351562 -256 l 0
 131.860351562 -256 l 0
EndSplineSet
EndChar

StartChar: backslash
Encoding: 92 92 52
Width: 2048
Flags: H
LayerCount: 2
Fore
SplineSet
430.381835938 1437 m 0
 607.381835938 1437 l 0
 801.860351562 -256 l 0
 623.860351562 -256 l 0
 430.381835938 1437 l 0
EndSplineSet
EndChar

StartChar: L
Encoding: 76 76 53
Width: 2048
Flags: H
LayerCount: 2
Fore
SplineSet
385.698242188 1280 m 0
 555.698242188 1280 l 0
 357.68359375 157 l 0
 923.68359375 157 l 0
 896 0 l 0
 160 0 l 0
 385.698242188 1280 l 0
EndSplineSet
EndChar

StartChar: equal
Encoding: 61 61 54
Width: 2048
Flags: H
LayerCount: 2
Fore
SplineSet
186.279296875 512 m 0
 1018.27929688 512 l 0
 990.595703125 355 l 0
 158.595703125 355 l 0
 186.279296875 512 l 0
259.102539062 925 m 0
 1091.10253906 925 l 0
 1063.41894531 768 l 0
 231.418945312 768 l 0
 259.102539062 925 l 0
EndSplineSet
EndChar

StartChar: E
Encoding: 69 69 55
Width: 2048
Flags: H
LayerCount: 2
Fore
SplineSet
385.698242188 1280 m 0
 1121.69824219 1280 l 0
 1094.015625 1123 l 0
 528.015625 1123 l 0
 465.418945312 768 l 0
 967.418945312 768 l 0
 939.735351562 611 l 0
 437.735351562 611 l 0
 357.68359375 157 l 0
 923.68359375 157 l 0
 896 0 l 0
 160 0 l 0
 385.698242188 1280 l 0
EndSplineSet
EndChar

StartChar: F
Encoding: 70 70 56
Width: 2048
Flags: H
LayerCount: 2
Fore
SplineSet
385.698242188 1280 m 0
 1121.69824219 1280 l 0
 1094.015625 1123 l 0
 528.015625 1123 l 0
 465.418945312 768 l 0
 999.418945312 768 l 0
 971.735351562 611 l 0
 437.735351562 611 l 0
 330 0 l 0
 160 0 l 0
 385.698242188 1280 l 0
EndSplineSet
EndChar

StartChar: H
Encoding: 72 72 57
Width: 2048
Flags: H
LayerCount: 2
Fore
SplineSet
321.698242188 1280 m 0
 491.698242188 1280 l 0
 401.418945312 768 l 0
 893.418945312 768 l 0
 983.698242188 1280 l 0
 1153.69824219 1280 l 0
 928 0 l 0
 758 0 l 0
 865.735351562 611 l 0
 373.735351562 611 l 0
 266 0 l 0
 96 0 l 0
 321.698242188 1280 l 0
EndSplineSet
EndChar

StartChar: exclam
Encoding: 33 33 58
Width: 2048
Flags: H
LayerCount: 2
Fore
SplineSet
429.139648438 256 m 0
 685.139648438 256 l 0
 640 0 l 0
 384 0 l 0
 429.139648438 256 l 0
644.698242188 1280 m 0
 830.698242188 1280 l 0
 687.279296875 512 l 0
 517.279296875 512 l 0
 644.698242188 1280 l 0
EndSplineSet
EndChar

StartChar: quotedbl
Encoding: 34 34 59
Width: 2048
Flags: H
LayerCount: 2
Fore
SplineSet
815.698242188 1280 m 0
 985.698242188 1280 l 0
 884.418945312 768 l 0
 737.418945312 768 l 0
 815.698242188 1280 l 0
489.698242188 1280 m 0
 659.698242188 1280 l 0
 557.418945312 768 l 0
 410.418945312 768 l 0
 489.698242188 1280 l 0
EndSplineSet
EndChar

StartChar: numbersign
Encoding: 35 35 60
Width: 2048
Flags: H
LayerCount: 2
Fore
SplineSet
775.943359375 805 m 0
 531.943359375 805 l 0
 473.754882812 475 l 0
 717.754882812 475 l 0
 775.943359375 805 l 0
469.698242188 1280 m 0
 615.698242188 1280 l 0
 557.686523438 951 l 0
 801.686523438 951 l 0
 859.698242188 1280 l 0
 1005.69824219 1280 l 0
 947.686523438 951 l 0
 1127.68652344 951 l 0
 1101.94335938 805 l 0
 921.943359375 805 l 0
 863.754882812 475 l 0
 1043.75488281 475 l 0
 1018.01171875 329 l 0
 838.01171875 329 l 0
 780 0 l 0
 634 0 l 0
 692.01171875 329 l 0
 448.01171875 329 l 0
 390 0 l 0
 244 0 l 0
 302.01171875 329 l 0
 122.01171875 329 l 0
 147.754882812 475 l 0
 327.754882812 475 l 0
 385.943359375 805 l 0
 205.943359375 805 l 0
 231.686523438 951 l 0
 411.686523438 951 l 0
 469.698242188 1280 l 0
EndSplineSet
EndChar

StartChar: dollar
Encoding: 36 36 61
Width: 2048
Flags: H
LayerCount: 2
Fore
SplineSet
673.15625 551 m 0
 623.9609375 272 l 0
 795.426757812 303 795.426757812 303 813.059570312 403 c 0
 822.934570312 459 822.934570312 459 786.340820312 492.5 c 0
 749.748046875 526 749.748046875 526 673.15625 551 c 0
626.08984375 1010 m 0
 454.80078125 980 454.80078125 980 436.638671875 877 c 0
 426.764648438 821 426.764648438 821 463.357421875 787.5 c 0
 499.950195312 754 499.950195312 754 576.541992188 729 c 0
 626.08984375 1010 l 0
680.381835938 1437 m 0
 850.381835938 1437 l 0
 806.4765625 1188 l 0
 824.65234375 1189 824.65234375 1189 851.65234375 1189 c 0
 912.65234375 1189 912.65234375 1189 967.447265625 1185 c 0
 1022.2421875 1181 1022.2421875 1181 1046.53710938 1177 c 0
 1070.83203125 1173 l 0
 1044.55859375 1024 l 0
 756.55859375 1024 l 0
 698.37109375 694 l 0
 755.549804688 678 755.549804688 678 792.2578125 665 c 0
 828.96484375 652 828.96484375 652 874.145507812 627.5 c 0
 919.325195312 603 919.325195312 603 943.387695312 575 c 0
 967.451171875 547 967.451171875 547 980.104492188 502.5 c 0
 992.7578125 458 992.7578125 458 983.059570312 403 c 0
 960.666015625 276 960.666015625 276 868.147460938 205 c 0
 775.627929688 134 775.627929688 134 616.04296875 108 c 0
 569.31640625 -157 l 0
 399.31640625 -157 l 0
 443.221679688 92 l 0
 419.045898438 91 419.045898438 91 379.045898438 91 c 0
 315.045898438 91 315.045898438 91 256.750976562 95 c 0
 198.456054688 99 198.456054688 99 172.662109375 103 c 0
 146.8671875 107 l 0
 173.139648438 256 l 0
 493.139648438 256 l 0
 551.327148438 586 l 0
 494.1484375 602 494.1484375 602 457.44140625 615 c 0
 420.733398438 628 420.733398438 628 375.553710938 652.5 c 0
 330.373046875 677 330.373046875 677 306.310546875 705 c 0
 282.248046875 733 282.248046875 733 269.59375 777.5 c 0
 256.940429688 822 256.940429688 822 266.638671875 877 c 0
 289.384765625 1006 289.384765625 1006 381.9921875 1077.5 c 0
 474.599609375 1149 474.599609375 1149 634.0078125 1174 c 0
 680.381835938 1437 l 0
EndSplineSet
EndChar

StartChar: percent
Encoding: 37 37 62
Width: 2048
Flags: H
LayerCount: 2
Fore
SplineSet
741.424804688 320 m 0
 952.424804688 320 l 0
 896 0 l 0
 685 0 l 0
 741.424804688 320 l 0
991.698242188 1280 m 0
 1185.69824219 1280 l 0
 258 0 l 0
 64 0 l 0
 991.698242188 1280 l 0
353.698242188 1280 m 0
 564.698242188 1280 l 0
 508.2734375 960 l 0
 297.2734375 960 l 0
 353.698242188 1280 l 0
EndSplineSet
EndChar

StartChar: ampersand
Encoding: 38 38 63
Width: 2048
Flags: H
LayerCount: 2
Fore
SplineSet
492.735351562 611 m 0
 422.735351562 611 422.735351562 611 371.303710938 549 c 0
 319.87109375 487 319.87109375 487 301.00390625 380 c 0
 282.137695312 273 282.137695312 273 345.705078125 211 c 0
 409.272460938 149 409.272460938 149 538.272460938 149 c 0
 685.272460938 149 l 0
 668.439453125 218 668.439453125 218 686.600585938 321 c 0
 737.735351562 611 l 0
 492.735351562 611 l 0
730.109375 1288 m 0
 765.109375 1288 765.109375 1288 795.904296875 1284 c 0
 826.698242188 1280 826.698242188 1280 840.493164062 1276 c 0
 854.288085938 1272 l 0
 828.015625 1123 l 0
 701.015625 1123 l 0
 600.015625 1123 600.015625 1123 540.874023438 1082.5 c 0
 481.732421875 1042 481.732421875 1042 464.805664062 946 c 0
 450.346679688 864 450.346679688 864 476.3828125 816 c 0
 502.418945312 768 502.418945312 768 560.418945312 768 c 0
 765.418945312 768 l 0
 804.03515625 987 l 0
 974.03515625 987 l 0
 935.418945312 768 l 0
 1095.41894531 768 l 0
 1067.73535156 611 l 0
 907.735351562 611 l 0
 856.600585938 321 l 0
 839.497070312 224 839.497070312 224 873.1796875 182.5 c 0
 906.862304688 141 906.862304688 141 984.862304688 141 c 0
 958.58984375 -8 l 0
 728.58984375 -8 728.58984375 -8 687.038085938 142 c 0
 510.58984375 -8 l 0
 290.58984375 -8 290.58984375 -8 192.37109375 81.5 c 0
 94.15234375 171 94.15234375 171 131.00390625 380 c 0
 143.170898438 449 143.170898438 449 171.07421875 508 c 0
 198.977539062 567 198.977539062 567 230.1484375 602 c 0
 261.3203125 637 261.3203125 637 290.81640625 662.5 c 0
 320.3125 688 320.3125 688 339.576171875 698 c 0
 358.83984375 708 l 0
 355.192382812 710 355.192382812 710 348.57421875 715 c 0
 341.955078125 720 341.955078125 720 327.482421875 740 c 0
 313.008789062 760 313.008789062 760 303.328125 784.5 c 0
 293.6484375 809 293.6484375 809 289.818359375 852.5 c 0
 285.989257812 896 285.989257812 896 294.805664062 946 c 0
 327.42578125 1131 327.42578125 1131 436.767578125 1209.5 c 0
 546.109375 1288 546.109375 1288 730.109375 1288 c 0
EndSplineSet
EndChar

StartChar: quotesingle
Encoding: 39 39 64
Width: 2048
Flags: H
LayerCount: 2
Fore
SplineSet
652.698242188 1280 m 0
 822.698242188 1280 l 0
 720.418945312 768 l 0
 574.418945312 768 l 0
 652.698242188 1280 l 0
EndSplineSet
EndChar

StartChar: parenleft
Encoding: 40 40 65
Width: 2048
Flags: H
LayerCount: 2
Fore
SplineSet
915.381835938 1437 m 0
 1107.38183594 1437 l 0
 1099.5 1432 1099.5 1432 1084.6484375 1421.5 c 0
 1069.79785156 1411 1069.79785156 1411 1025.68554688 1373.5 c 0
 981.573242188 1336 981.573242188 1336 940.314453125 1292 c 0
 899.055664062 1248 899.055664062 1248 844.595703125 1174.5 c 0
 790.135742188 1101 790.135742188 1101 746.353515625 1020 c 0
 702.571289062 939 702.571289062 939 662.146484375 826 c 0
 621.720703125 713 621.720703125 713 600.208984375 591 c 0
 578.697265625 469 578.697265625 469 578.360351562 356.5 c 0
 578.0234375 244 578.0234375 244 595.4765625 161.5 c 0
 612.9296875 79 612.9296875 79 638.322265625 7.5 c 0
 663.71484375 -64 663.71484375 -64 693.427734375 -111 c 0
 723.140625 -158 723.140625 -158 749.145507812 -192 c 0
 775.150390625 -226 775.150390625 -226 792.004882812 -241 c 0
 808.860351562 -256 l 0
 616.860351562 -256 l 0
 610.7421875 -251 610.7421875 -251 599.59375 -240.5 c 0
 588.444335938 -230 588.444335938 -230 558.556640625 -192.5 c 0
 528.668945312 -155 528.668945312 -155 503.427734375 -111 c 0
 478.186523438 -67 478.186523438 -67 450.146484375 6.5 c 0
 422.106445312 80 422.106445312 80 407.4765625 161.5 c 0
 392.84765625 243 392.84765625 243 392.772460938 356 c 0
 392.697265625 469 392.697265625 469 414.208984375 591 c 0
 435.720703125 713 435.720703125 713 475.057617188 825.5 c 0
 514.39453125 938 514.39453125 938 559.94140625 1020.5 c 0
 605.48828125 1103 605.48828125 1103 655.595703125 1174.5 c 0
 705.703125 1246 705.703125 1246 751.491210938 1293 c 0
 797.278320312 1340 797.278320312 1340 834.185546875 1373.5 c 0
 871.091796875 1407 871.091796875 1407 893.237304688 1422 c 0
 915.381835938 1437 l 0
EndSplineSet
EndChar

StartChar: parenright
Encoding: 41 41 66
Width: 2048
Flags: H
LayerCount: 2
Fore
SplineSet
615.381835938 1437 m 0
 621.5 1432 621.5 1432 632.6484375 1421.5 c 0
 643.797851562 1411 643.797851562 1411 673.685546875 1373.5 c 0
 703.573242188 1336 703.573242188 1336 728.814453125 1292 c 0
 754.055664062 1248 754.055664062 1248 782.095703125 1174.5 c 0
 810.135742188 1101 810.135742188 1101 824.853515625 1020 c 0
 839.571289062 939 839.571289062 939 839.646484375 826 c 0
 839.720703125 713 839.720703125 713 818.208984375 591 c 0
 796.697265625 469 796.697265625 469 757.360351562 356.5 c 0
 718.0234375 244 718.0234375 244 672.4765625 161.5 c 0
 626.9296875 79 626.9296875 79 576.822265625 7.5 c 0
 526.71484375 -64 526.71484375 -64 480.927734375 -111 c 0
 435.140625 -158 435.140625 -158 398.145507812 -192 c 0
 361.150390625 -226 361.150390625 -226 339.004882812 -241 c 0
 316.860351562 -256 l 0
 124.860351562 -256 l 0
 132.7421875 -251 132.7421875 -251 147.59375 -240.5 c 0
 162.444335938 -230 162.444335938 -230 206.556640625 -192.5 c 0
 250.668945312 -155 250.668945312 -155 291.927734375 -111 c 0
 333.186523438 -67 333.186523438 -67 387.646484375 6.5 c 0
 442.106445312 80 442.106445312 80 485.9765625 161.5 c 0
 529.84765625 243 529.84765625 243 570.272460938 356 c 0
 610.697265625 469 610.697265625 469 632.208984375 591 c 0
 653.720703125 713 653.720703125 713 654.057617188 825.5 c 0
 654.39453125 938 654.39453125 938 636.94140625 1020.5 c 0
 619.48828125 1103 619.48828125 1103 594.095703125 1174.5 c 0
 568.703125 1246 568.703125 1246 538.991210938 1293 c 0
 509.278320312 1340 509.278320312 1340 483.185546875 1373.5 c 0
 457.091796875 1407 457.091796875 1407 440.237304688 1422 c 0
 423.381835938 1437 l 0
 615.381835938 1437 l 0
EndSplineSet
EndChar

StartChar: asterisk
Encoding: 42 42 67
Width: 2048
Flags: H
LayerCount: 2
Fore
SplineSet
664.698242188 1280 m 0
 810.698242188 1280 l 0
 744.807617188 929 l 0
 1098.55664062 1041 l 0
 1119.046875 902 l 0
 765.532226562 797 l 0
 925.80859375 515 l 0
 792.64453125 429 l 0
 638.426757812 717 l 0
 382.64453125 429 l 0
 279.80859375 515 l 0
 539.532226562 797 l 0
 223.046875 902 l 0
 292.556640625 1041 l 0
 606.807617188 929 l 0
 664.698242188 1280 l 0
EndSplineSet
EndChar

StartChar: plus
Encoding: 43 43 68
Width: 2048
Flags: H
LayerCount: 2
Fore
SplineSet
618.84375 1088 m 0
 788.84375 1088 l 0
 723.779296875 719 l 0
 1086.77929688 719 l 0
 1058.91992188 561 l 0
 695.919921875 561 l 0
 630.854492188 192 l 0
 460.854492188 192 l 0
 525.919921875 561 l 0
 162.919921875 561 l 0
 190.779296875 719 l 0
 553.779296875 719 l 0
 618.84375 1088 l 0
EndSplineSet
EndChar

StartChar: comma
Encoding: 44 44 69
Width: 2048
Flags: H
LayerCount: 2
Fore
SplineSet
457.3515625 416 m 0
 713.3515625 416 l 0
 668.211914062 160 l 0
 666.978515625 153 666.978515625 153 663.950195312 141.5 c 0
 660.922851562 130 660.922851562 130 648.338867188 95.5 c 0
 635.755859375 61 635.755859375 61 617.9375 28 c 0
 600.118164062 -5 600.118164062 -5 565.948242188 -48.5 c 0
 531.778320312 -92 531.778320312 -92 489.4296875 -128 c 0
 338.860351562 -256 l 0
 231.314453125 -140 l 0
 381.883789062 -12 l 0
 448.934570312 45 448.934570312 45 488.516601562 88 c 0
 528.098632812 131 528.098632812 131 534.155273438 145.5 c 0
 540.211914062 160 l 0
 412.211914062 160 l 0
 457.3515625 416 l 0
EndSplineSet
EndChar

StartChar: period
Encoding: 46 46 70
Width: 2048
Flags: H
LayerCount: 2
Fore
SplineSet
640 0 m 0
 384 0 l 0
 440.424804688 320 l 0
 696.424804688 320 l 0
 640 0 l 0
EndSplineSet
EndChar

StartChar: zero
Encoding: 48 48 71
Width: 2048
Flags: H
LayerCount: 2
Fore
SplineSet
562.418945312 768 m 0
 732.418945312 768 l 0
 687.279296875 512 l 0
 517.279296875 512 l 0
 562.418945312 768 l 0
712.836914062 1139 m 0
 594.836914062 1139 594.836914062 1139 503.208984375 1005 c 0
 411.581054688 871 411.581054688 871 370.849609375 640 c 0
 330.118164062 409 330.118164062 409 374.490234375 275 c 0
 418.862304688 141 418.862304688 141 536.862304688 141 c 0
 654.862304688 141 654.862304688 141 746.490234375 275 c 0
 838.118164062 409 838.118164062 409 878.849609375 640 c 0
 919.581054688 871 919.581054688 871 875.208984375 1005 c 0
 830.836914062 1139 830.836914062 1139 712.836914062 1139 c 0
740.51953125 1296 m 0
 940.51953125 1296 940.51953125 1296 1025.48632812 1120 c 0
 1110.453125 944 1110.453125 944 1056.84960938 640 c 0
 1003.24609375 336 1003.24609375 336 856.211914062 160 c 0
 709.178710938 -16 709.178710938 -16 509.178710938 -16 c 0
 309.178710938 -16 309.178710938 -16 224.211914062 160 c 0
 139.24609375 336 139.24609375 336 192.849609375 640 c 0
 246.453125 944 246.453125 944 393.486328125 1120 c 0
 540.51953125 1296 540.51953125 1296 740.51953125 1296 c 0
EndSplineSet
EndChar

StartChar: two
Encoding: 50 50 72
Width: 2048
Flags: H
LayerCount: 2
Fore
SplineSet
740.51953125 1296 m 0
 905.51953125 1296 905.51953125 1296 989.034179688 1194 c 0
 1072.54882812 1092 1072.54882812 1092 1047.15820312 948 c 0
 1040.45800781 910 1040.45800781 910 1021.58105469 871 c 0
 1002.70410156 832 1002.70410156 832 982.149414062 800.5 c 0
 961.595703125 769 961.595703125 769 917.3671875 719.5 c 0
 873.138671875 670 873.138671875 670 841.997070312 638 c 0
 810.854492188 606 810.854492188 606 744.216796875 540 c 0
 359.68359375 157 l 0
 923.68359375 157 l 0
 896 0 l 0
 128 0 l 0
 155.68359375 157 l 0
 640.849609375 640 l 0
 725.836914062 725 725.836914062 725 763.301757812 764.5 c 0
 800.766601562 804 800.766601562 804 835.259765625 855 c 0
 869.751953125 906 869.751953125 906 877.158203125 948 c 0
 889.676757812 1019 889.676757812 1019 844.756835938 1079 c 0
 799.836914062 1139 799.836914062 1139 712.836914062 1139 c 0
 625.836914062 1139 625.836914062 1139 559.756835938 1079 c 0
 493.676757812 1019 493.676757812 1019 481.158203125 948 c 0
 311.158203125 948 l 0
 336.548828125 1092 336.548828125 1092 456.034179688 1194 c 0
 575.51953125 1296 575.51953125 1296 740.51953125 1296 c 0
EndSplineSet
EndChar

StartChar: three
Encoding: 51 51 73
Width: 2048
Flags: H
LayerCount: 2
Fore
SplineSet
597.109375 1288 m 0
 847.109375 1288 847.109375 1288 963.1796875 1209 c 0
 1079.24902344 1130 1079.24902344 1130 1046.80566406 946 c 0
 1037.45996094 893 1037.45996094 893 1012.20117188 849 c 0
 986.943359375 805 986.943359375 805 957.53515625 780 c 0
 928.126953125 755 928.126953125 755 900.041015625 737.5 c 0
 871.955078125 720 871.955078125 720 853.397460938 714 c 0
 834.83984375 708 l 0
 842.310546875 705 842.310546875 705 854.752929688 699 c 0
 867.194335938 693 867.194335938 693 897.786132812 668 c 0
 928.377929688 643 928.377929688 643 949.059570312 610 c 0
 969.740234375 577 969.740234375 577 981.161132812 517 c 0
 992.581054688 457 992.581054688 457 979.709960938 384 c 0
 960.666015625 276 960.666015625 276 909.588867188 199 c 0
 858.51171875 122 858.51171875 122 777.577148438 77 c 0
 696.642578125 32 696.642578125 32 594.616210938 12 c 0
 492.58984375 -8 492.58984375 -8 361.58984375 -8 c 0
 297.58984375 -8 297.58984375 -8 239.294921875 -4 c 0
 181 0 181 0 155.205078125 4 c 0
 129.41015625 8 l 0
 155.68359375 157 l 0
 390.68359375 157 l 0
 575.68359375 157 575.68359375 157 681.940429688 209.5 c 0
 788.197265625 262 788.197265625 262 809.709960938 384 c 0
 828.223632812 489 828.223632812 489 763.479492188 550 c 0
 698.735351562 611 698.735351562 611 568.735351562 611 c 0
 395.735351562 611 l 0
 423.418945312 768 l 0
 584.418945312 768 l 0
 705.418945312 768 705.418945312 768 783.8828125 816 c 0
 862.346679688 864 862.346679688 864 876.805664062 946 c 0
 893.556640625 1041 893.556640625 1041 814.286132812 1082 c 0
 735.015625 1123 735.015625 1123 568.015625 1123 c 0
 358.015625 1123 l 0
 384.288085938 1272 l 0
 467.109375 1288 467.109375 1288 597.109375 1288 c 0
EndSplineSet
EndChar

StartChar: four
Encoding: 52 52 74
Width: 2048
Flags: H
LayerCount: 2
Fore
SplineSet
702.823242188 413 m 0
 807.737304688 1008 l 0
 336.823242188 413 l 0
 702.823242188 413 l 0
823.698242188 1280 m 0
 1025.69824219 1280 l 0
 872.823242188 413 l 0
 1032.82324219 413 l 0
 1005.13964844 256 l 0
 845.139648438 256 l 0
 800 0 l 0
 630 0 l 0
 675.139648438 256 l 0
 109.139648438 256 l 0
 136.823242188 413 l 0
 823.698242188 1280 l 0
EndSplineSet
EndChar

StartChar: five
Encoding: 53 53 75
Width: 2048
Flags: H
LayerCount: 2
Fore
SplineSet
528.015625 1123 m 0
 470.532226562 797 l 0
 652.532226562 797 l 0
 837.532226562 797 837.532226562 797 928.8984375 705.5 c 0
 1020.26464844 614 1020.26464844 614 992.405273438 456 c 0
 969.834960938 328 969.834960938 328 916.2890625 237 c 0
 862.744140625 146 862.744140625 146 780.3984375 93 c 0
 698.052734375 40 698.052734375 40 595.321289062 16 c 0
 492.58984375 -8 492.58984375 -8 361.58984375 -8 c 0
 297.58984375 -8 297.58984375 -8 239.294921875 -4 c 0
 181 0 181 0 155.205078125 4 c 0
 129.41015625 8 l 0
 155.68359375 157 l 0
 390.68359375 157 l 0
 575.68359375 157 575.68359375 157 684.849609375 226 c 0
 794.016601562 295 794.016601562 295 822.405273438 456 c 0
 837.392578125 541 837.392578125 541 784.62109375 590.5 c 0
 731.849609375 640 731.849609375 640 624.849609375 640 c 0
 272.849609375 640 l 0
 385.698242188 1280 l 0
 1089.69824219 1280 l 0
 1062.015625 1123 l 0
 528.015625 1123 l 0
EndSplineSet
EndChar

StartChar: six
Encoding: 54 54 76
Width: 2048
Flags: H
LayerCount: 2
Fore
SplineSet
622.556640625 627 m 0
 492.556640625 627 492.556640625 627 433.211914062 574 c 0
 373.866210938 521 373.866210938 521 349.709960938 384 c 0
 329.784179688 271 329.784179688 271 380.323242188 206 c 0
 430.862304688 141 430.862304688 141 536.862304688 141 c 0
 642.862304688 141 642.862304688 141 716.323242188 206 c 0
 789.784179688 271 789.784179688 271 809.709960938 384 c 0
 829.634765625 497 829.634765625 497 779.095703125 562 c 0
 728.556640625 627 728.556640625 627 622.556640625 627 c 0
737.698242188 1280 m 0
 931.698242188 1280 l 0
 567.7109375 781 l 0
 607.240234375 784 607.240234375 784 650.240234375 784 c 0
 835.240234375 784 835.240234375 784 923.78515625 676.5 c 0
 1012.33007812 569 1012.33007812 569 979.709960938 384 c 0
 947.088867188 199 947.088867188 199 820.633789062 91.5 c 0
 694.178710938 -16 694.178710938 -16 509.178710938 -16 c 0
 324.178710938 -16 324.178710938 -16 235.633789062 91.5 c 0
 147.088867188 199 147.088867188 199 179.709960938 384 c 0
 209.861328125 555 209.861328125 555 273.377929688 643 c 0
 737.698242188 1280 l 0
EndSplineSet
EndChar

StartChar: seven
Encoding: 55 55 77
Width: 2048
Flags: H
LayerCount: 2
Fore
SplineSet
1153.69824219 1280 m 0
 1126.015625 1123 l 0
 512 0 l 0
 331 0 l 0
 945.015625 1123 l 0
 294.015625 1123 l 0
 321.698242188 1280 l 0
 1153.69824219 1280 l 0
EndSplineSet
EndChar

StartChar: eight
Encoding: 56 56 78
Width: 2048
Flags: H
LayerCount: 2
Fore
SplineSet
623.438476562 632 m 0
 618.0859375 630 618.0859375 630 607.880859375 626 c 0
 597.67578125 622 597.67578125 622 567.70703125 608 c 0
 537.73828125 594 537.73828125 594 510.504882812 578.5 c 0
 483.272460938 563 483.272460938 563 448.452148438 538.5 c 0
 413.631835938 514 413.631835938 514 387.723632812 489 c 0
 361.815429688 464 361.815429688 464 340.909179688 430.5 c 0
 320.001953125 397 320.001953125 397 314.006835938 363 c 0
 297.255859375 268 297.255859375 268 357.969726562 212.5 c 0
 418.68359375 157 418.68359375 157 539.68359375 157 c 0
 660.68359375 157 660.68359375 157 740.969726562 212.5 c 0
 821.255859375 268 821.255859375 268 838.006835938 363 c 0
 846.118164062 409 846.118164062 409 827.052734375 454 c 0
 807.987304688 499 807.987304688 499 774.953125 530 c 0
 741.919921875 561 741.919921875 561 707.651367188 585 c 0
 673.3828125 609 673.3828125 609 648.411132812 620.5 c 0
 623.438476562 632 l 0
453.037109375 970 m 0
 446.866210938 935 446.866210938 935 464.458984375 901.5 c 0
 482.051757812 868 482.051757812 868 511.99609375 845 c 0
 541.940429688 822 541.940429688 822 572.678710938 803.5 c 0
 603.416992188 785 603.416992188 785 625.41796875 776.5 c 0
 647.418945312 768 l 0
 652.771484375 770 652.771484375 770 661.30078125 773 c 0
 669.830078125 776 669.830078125 776 695.681640625 786.5 c 0
 721.532226562 797 721.532226562 797 745.560546875 808.5 c 0
 769.587890625 820 769.587890625 820 799.26171875 838 c 0
 828.935546875 856 828.935546875 856 851.286132812 875 c 0
 873.63671875 894 873.63671875 894 891.044921875 919 c 0
 908.453125 944 908.453125 944 913.037109375 970 c 0
 926.791015625 1048 926.791015625 1048 872.813476562 1093.5 c 0
 818.836914062 1139 818.836914062 1139 712.836914062 1139 c 0
 606.836914062 1139 606.836914062 1139 536.813476562 1093.5 c 0
 466.791015625 1048 466.791015625 1048 453.037109375 970 c 0
283.037109375 970 m 0
 309.662109375 1121 309.662109375 1121 432.590820312 1208.5 c 0
 555.51953125 1296 555.51953125 1296 740.51953125 1296 c 0
 925.51953125 1296 925.51953125 1296 1017.59082031 1208.5 c 0
 1109.66210938 1121 1109.66210938 1121 1083.03710938 970 c 0
 1074.75 923 1074.75 923 1042.31542969 878 c 0
 1009.88085938 833 1009.88085938 833 969.501953125 802.5 c 0
 929.124023438 772 929.124023438 772 889.8046875 747.5 c 0
 850.484375 723 850.484375 723 823.95703125 711.5 c 0
 797.428710938 700 l 0
 807.546875 695 807.546875 695 823.784179688 685 c 0
 840.020507812 675 840.020507812 675 880.61328125 641.5 c 0
 921.20703125 608 921.20703125 608 950.770507812 571.5 c 0
 980.334960938 535 980.334960938 535 999.284179688 478 c 0
 1018.23339844 421 1018.23339844 421 1008.00683594 363 c 0
 976.973632812 187 976.973632812 187 843.076171875 85.5 c 0
 709.178710938 -16 709.178710938 -16 509.178710938 -16 c 0
 309.178710938 -16 309.178710938 -16 211.076171875 85.5 c 0
 112.973632812 187 112.973632812 187 144.006835938 363 c 0
 154.233398438 421 154.233398438 421 192.196289062 477.5 c 0
 230.158203125 534 230.158203125 534 276.447265625 572.5 c 0
 322.735351562 611 322.735351562 611 367.525390625 641 c 0
 412.315429688 671 412.315429688 671 442.872070312 685.5 c 0
 473.428710938 700 l 0
 464.133789062 704 464.133789062 704 449.544921875 712 c 0
 434.955078125 720 434.955078125 720 398.715820312 747 c 0
 362.477539062 774 362.477539062 774 336.090820312 803 c 0
 309.704101562 832 309.704101562 832 292.2265625 877.5 c 0
 274.75 923 274.75 923 283.037109375 970 c 0
EndSplineSet
EndChar

StartChar: nine
Encoding: 57 57 79
Width: 2048
Flags: H
LayerCount: 2
Fore
SplineSet
627.141601562 653 m 0
 757.141601562 653 757.141601562 653 816.487304688 706 c 0
 875.83203125 759 875.83203125 759 899.989257812 896 c 0
 919.9140625 1009 919.9140625 1009 869.375 1074 c 0
 818.836914062 1139 818.836914062 1139 712.836914062 1139 c 0
 606.836914062 1139 606.836914062 1139 533.375 1074 c 0
 459.9140625 1009 459.9140625 1009 439.989257812 896 c 0
 420.064453125 783 420.064453125 783 470.602539062 718 c 0
 521.141601562 653 521.141601562 653 627.141601562 653 c 0
512 0 m 0
 318 0 l 0
 681.987304688 499 l 0
 642.458007812 496 642.458007812 496 599.458007812 496 c 0
 414.458007812 496 414.458007812 496 325.913085938 603.5 c 0
 237.368164062 711 237.368164062 711 269.989257812 896 c 0
 302.609375 1081 302.609375 1081 429.064453125 1188.5 c 0
 555.51953125 1296 555.51953125 1296 740.51953125 1296 c 0
 925.51953125 1296 925.51953125 1296 1014.06445312 1188.5 c 0
 1102.609375 1081 1102.609375 1081 1069.98925781 896 c 0
 1039.83691406 725 1039.83691406 725 976.3203125 637 c 0
 512 0 l 0
EndSplineSet
EndChar

StartChar: colon
Encoding: 58 58 80
Width: 2048
Flags: H
LayerCount: 2
Fore
SplineSet
457.3515625 416 m 0
 713.3515625 416 l 0
 656.927734375 96 l 0
 400.927734375 96 l 0
 457.3515625 416 l 0
592.771484375 1184 m 0
 848.771484375 1184 l 0
 792.346679688 864 l 0
 536.346679688 864 l 0
 592.771484375 1184 l 0
EndSplineSet
EndChar

StartChar: semicolon
Encoding: 59 59 81
Width: 2048
Flags: H
LayerCount: 2
Fore
SplineSet
457.3515625 416 m 0
 713.3515625 416 l 0
 668.2109375 159.994140625 l 0
 667.052734375 153.482421875 667.052734375 153.482421875 664.2578125 141.932617188 c 0
 661.461914062 130.383789062 661.461914062 130.383789062 648.459960938 95.8828125 c 0
 635.458984375 61.3818359375 635.458984375 61.3818359375 617.592773438 28.2724609375 c 0
 599.7265625 -4.8369140625 599.7265625 -4.8369140625 565.658203125 -48.498046875 c 0
 531.58984375 -92.16015625 531.58984375 -92.16015625 489.4296875 -128 c 0
 338.860351562 -256 l 0
 231.314453125 -140 l 0
 381.883789062 -12 l 0
 448.934570312 45 448.934570312 45 488.516601562 88 c 0
 528.098632812 131 528.098632812 131 534.155273438 145.5 c 0
 540.211914062 160 l 0
 412.211914062 160 l 0
 457.3515625 416 l 0
592.771484375 1184 m 0
 848.771484375 1184 l 0
 792.346679688 864 l 0
 536.346679688 864 l 0
 592.771484375 1184 l 0
EndSplineSet
EndChar

StartChar: less
Encoding: 60 60 82
Width: 2048
Flags: H
LayerCount: 2
Fore
SplineSet
1041.7734375 1167 m 0
 1108.55859375 1024 l 0
 443.849609375 640 l 0
 973.139648438 256 l 0
 855.924804688 113 l 0
 199.856445312 589 l 0
 217.841796875 691 l 0
 1041.7734375 1167 l 0
EndSplineSet
EndChar

StartChar: greater
Encoding: 62 62 83
Width: 2048
Flags: H
LayerCount: 2
Fore
SplineSet
393.7734375 1167 m 0
 1049.84179688 691 l 0
 1031.85644531 589 l 0
 207.924804688 113 l 0
 141.139648438 256 l 0
 805.849609375 640 l 0
 276.55859375 1024 l 0
 393.7734375 1167 l 0
EndSplineSet
EndChar

StartChar: question
Encoding: 63 63 84
Width: 2048
Flags: H
LayerCount: 2
Fore
SplineSet
429.139648438 256 m 0
 685.139648438 256 l 0
 640 0 l 0
 384 0 l 0
 429.139648438 256 l 0
384.288085938 1272 m 0
 489.109375 1288 489.109375 1288 654.109375 1288 c 0
 874.109375 1288 874.109375 1288 977.120117188 1211.5 c 0
 1080.13085938 1135 1080.13085938 1135 1049.97949219 964 c 0
 1025.99902344 828 1025.99902344 828 912.98046875 748.5 c 0
 799.962890625 669 799.962890625 669 629.962890625 669 c 0
 602.279296875 512 l 0
 432.279296875 512 l 0
 483.943359375 805 l 0
 663.943359375 805 663.943359375 805 764.467773438 842 c 0
 864.991210938 879 864.991210938 879 879.979492188 964 c 0
 895.143554688 1050 895.143554688 1050 829.579101562 1086.5 c 0
 764.015625 1123 764.015625 1123 625.015625 1123 c 0
 358.015625 1123 l 0
 384.288085938 1272 l 0
EndSplineSet
EndChar

StartChar: at
Encoding: 64 64 85
Width: 2048
Flags: H
LayerCount: 2
Fore
SplineSet
762.418945312 768 m 0
 709.418945312 768 709.418945312 768 673.834960938 742 c 0
 638.25 716 638.25 716 630.138671875 670 c 0
 617.267578125 597 617.267578125 597 640.7734375 554.5 c 0
 664.279296875 512 664.279296875 512 717.279296875 512 c 0
 904.279296875 512 l 0
 949.418945312 768 l 0
 762.418945312 768 l 0
814.51953125 1296 m 0
 987.51953125 1296 987.51953125 1296 1074.17773438 1217.5 c 0
 1160.83691406 1139 1160.83691406 1139 1137.03222656 1004 c 0
 1050.27929688 512 l 0
 1035.8203125 430 1035.8203125 430 998.677734375 398 c 0
 961.536132812 366 961.536132812 366 878.536132812 366 c 0
 691.536132812 366 l 0
 566.536132812 366 566.536132812 366 508.90625 447.5 c 0
 451.27734375 529 451.27734375 529 476.138671875 670 c 0
 496.064453125 783 496.064453125 783 579.61328125 848.5 c 0
 663.163085938 914 663.163085938 914 788.163085938 914 c 0
 975.163085938 914 l 0
 991.032226562 1004 l 0
 1003.02246094 1072 1003.02246094 1072 948.899414062 1111 c 0
 894.776367188 1150 894.776367188 1150 788.776367188 1150 c 0
 610.776367188 1150 610.776367188 1150 494.440429688 1029 c 0
 378.104492188 908 378.104492188 908 330.849609375 640 c 0
 306.692382812 503 306.692382812 503 317.676757812 406.5 c 0
 328.661132812 310 328.661132812 310 374.19921875 253.5 c 0
 419.736328125 197 419.736328125 197 488.740234375 171.5 c 0
 557.744140625 146 557.744140625 146 656.744140625 146 c 0
 921.744140625 146 l 0
 897.41015625 8 l 0
 793.58984375 -8 793.58984375 -8 629.58984375 -8 c 0
 518.58984375 -8 518.58984375 -8 434.204101562 12.5 c 0
 349.818359375 33 349.818359375 33 285.194335938 80.5 c 0
 220.5703125 128 220.5703125 128 185.118164062 202 c 0
 149.666015625 276 149.666015625 276 142.5625 386 c 0
 135.458007812 496 135.458007812 496 160.849609375 640 c 0
 186.592773438 786 186.592773438 786 230.665039062 897 c 0
 274.737304688 1008 274.737304688 1008 332.549804688 1083.5 c 0
 390.36328125 1159 390.36328125 1159 465.73828125 1206.5 c 0
 541.114257812 1254 541.114257812 1254 626.317382812 1275 c 0
 711.51953125 1296 711.51953125 1296 814.51953125 1296 c 0
EndSplineSet
EndChar

StartChar: A
Encoding: 65 65 86
Width: 2048
Flags: H
LayerCount: 2
Fore
SplineSet
706.48828125 1103 m 0
 645.278320312 926 l 0
 419.994140625 448 l 0
 761.994140625 448 l 0
 705.278320312 926 l 0
 706.48828125 1103 l 0
635.698242188 1280 m 0
 839.698242188 1280 l 0
 992 0 l 0
 815 0 l 0
 780.311523438 291 l 0
 346.311523438 291 l 0
 209 0 l 0
 32 0 l 0
 635.698242188 1280 l 0
EndSplineSet
EndChar

StartChar: B
Encoding: 66 66 87
Width: 2048
Flags: H
LayerCount: 2
Fore
SplineSet
405.735351562 611 m 0
 325.68359375 157 l 0
 411.68359375 157 l 0
 508.68359375 157 508.68359375 157 577.358398438 166.5 c 0
 646.033203125 176 646.033203125 176 703.853515625 200.5 c 0
 761.673828125 225 761.673828125 225 795.696289062 270.5 c 0
 829.719726562 316 829.719726562 316 841.709960938 384 c 0
 853.700195312 452 853.700195312 452 835.72265625 497.5 c 0
 817.745117188 543 817.745117188 543 768.565429688 567.5 c 0
 719.385742188 592 719.385742188 592 654.060546875 601.5 c 0
 588.735351562 611 588.735351562 611 491.735351562 611 c 0
 405.735351562 611 l 0
496.015625 1123 m 0
 433.418945312 768 l 0
 519.418945312 768 l 0
 655.418945312 768 655.418945312 768 742.8828125 816 c 0
 830.346679688 864 830.346679688 864 844.805664062 946 c 0
 859.263671875 1028 859.263671875 1028 788.639648438 1075.5 c 0
 718.015625 1123 718.015625 1123 582.015625 1123 c 0
 496.015625 1123 l 0
353.698242188 1280 m 0
 609.698242188 1280 l 0
 834.698242188 1280 834.698242188 1280 940.268554688 1201 c 0
 1045.83886719 1122 1045.83886719 1122 1014.80566406 946 c 0
 1005.45996094 893 1005.45996094 893 980.201171875 849 c 0
 954.943359375 805 954.943359375 805 925.53515625 780 c 0
 896.126953125 755 896.126953125 755 868.041015625 737.5 c 0
 839.955078125 720 839.955078125 720 821.397460938 714 c 0
 802.83984375 708 l 0
 813.310546875 705 813.310546875 705 830.252929688 699 c 0
 847.194335938 693 847.194335938 693 888.286132812 668 c 0
 929.377929688 643 929.377929688 643 959.059570312 610 c 0
 988.740234375 577 988.740234375 577 1006.66113281 517 c 0
 1024.58105469 457 1024.58105469 457 1011.70996094 384 c 0
 993.018554688 278 993.018554688 278 941.793945312 203 c 0
 890.5703125 128 890.5703125 128 807.811523438 84 c 0
 725.052734375 40 725.052734375 40 621.526367188 20 c 0
 518 0 518 0 384 0 c 0
 128 0 l 0
 353.698242188 1280 l 0
EndSplineSet
EndChar

StartChar: C
Encoding: 67 67 88
Width: 2048
Flags: H
LayerCount: 2
Fore
SplineSet
892.109375 1288 m 0
 956.109375 1288 956.109375 1288 1012.90429688 1284 c 0
 1069.69824219 1280 1069.69824219 1280 1094.99316406 1276 c 0
 1120.28808594 1272 l 0
 1094.015625 1123 l 0
 863.015625 1123 l 0
 689.015625 1123 689.015625 1123 565.680664062 993.5 c 0
 442.346679688 864 442.346679688 864 402.849609375 640 c 0
 357.00390625 380 357.00390625 380 432.84375 268.5 c 0
 508.68359375 157 508.68359375 157 692.68359375 157 c 0
 923.68359375 157 l 0
 897.41015625 8 l 0
 806.58984375 -8 806.58984375 -8 663.58984375 -8 c 0
 530.58984375 -8 530.58984375 -8 437.99609375 25.5 c 0
 345.403320312 59 345.403320312 59 284.451171875 133 c 0
 223.5 207 223.5 207 208.393554688 334 c 0
 193.287109375 461 193.287109375 461 224.849609375 640 c 0
 277.747070312 940 277.747070312 940 456.928710938 1114 c 0
 636.109375 1288 636.109375 1288 892.109375 1288 c 0
EndSplineSet
EndChar

StartChar: D
Encoding: 68 68 89
Width: 2048
Flags: H
LayerCount: 2
Fore
SplineSet
496.015625 1123 m 0
 325.68359375 157 l 0
 411.68359375 157 l 0
 503.68359375 157 503.68359375 157 576.091796875 182 c 0
 648.5 207 648.5 207 709.286132812 262.5 c 0
 770.072265625 318 770.072265625 318 812.735351562 412.5 c 0
 855.397460938 507 855.397460938 507 878.849609375 640 c 0
 902.30078125 773 902.30078125 773 892.963867188 867.5 c 0
 883.626953125 962 883.626953125 962 842.413085938 1017.5 c 0
 801.19921875 1073 801.19921875 1073 737.607421875 1098 c 0
 674.015625 1123 674.015625 1123 582.015625 1123 c 0
 496.015625 1123 l 0
353.698242188 1280 m 0
 609.698242188 1280 l 0
 743.698242188 1280 743.698242188 1280 837.879882812 1247 c 0
 932.060546875 1214 932.060546875 1214 994.100585938 1140.5 c 0
 1056.140625 1067 1056.140625 1067 1072.09960938 942 c 0
 1088.05957031 817 1088.05957031 817 1056.84960938 640 c 0
 1025.63964844 463 1025.63964844 463 965.598632812 338 c 0
 905.557617188 213 905.557617188 213 817.59765625 139.5 c 0
 729.637695312 66 729.637695312 66 623.818359375 33 c 0
 518 0 518 0 384 0 c 0
 128 0 l 0
 353.698242188 1280 l 0
EndSplineSet
EndChar

StartChar: G
Encoding: 71 71 90
Width: 2048
Flags: H
LayerCount: 2
Fore
SplineSet
867.109375 1288 m 0
 934.109375 1288 934.109375 1288 997.404296875 1284 c 0
 1060.69824219 1280 1060.69824219 1280 1090.49316406 1276 c 0
 1120.28808594 1272 l 0
 1094.015625 1123 l 0
 838.015625 1123 l 0
 650.015625 1123 650.015625 1123 530.622070312 996 c 0
 411.228515625 869 411.228515625 869 370.849609375 640 c 0
 347.044921875 505 347.044921875 505 351.029296875 408.5 c 0
 355.013671875 312 355.013671875 312 386.639648438 256 c 0
 418.265625 200 418.265625 200 468.76953125 174.5 c 0
 519.272460938 149 519.272460938 149 593.272460938 149 c 0
 686.272460938 149 686.272460938 149 739.680664062 174 c 0
 793.088867188 199 793.088867188 199 803.139648438 256 c 0
 865.735351562 611 l 0
 619.735351562 611 l 0
 647.418945312 768 l 0
 1063.41894531 768 l 0
 973.139648438 256 l 0
 948.1015625 114 948.1015625 114 845.345703125 53 c 0
 742.58984375 -8 742.58984375 -8 565.58984375 -8 c 0
 448.58984375 -8 448.58984375 -8 367.49609375 25.5 c 0
 286.403320312 59 286.403320312 59 234.451171875 133 c 0
 182.5 207 182.5 207 171.893554688 334 c 0
 161.287109375 461 161.287109375 461 192.849609375 640 c 0
 246.453125 944 246.453125 944 421.28125 1116 c 0
 596.109375 1288 596.109375 1288 867.109375 1288 c 0
EndSplineSet
EndChar

StartChar: J
Encoding: 74 74 91
Width: 2048
Flags: H
LayerCount: 2
Fore
SplineSet
417.698242188 1280 m 0
 1057.69824219 1280 l 0
 924.748046875 526 l 0
 898.651367188 378 898.651367188 378 846.225585938 273.5 c 0
 793.798828125 169 793.798828125 169 716.04296875 108 c 0
 638.287109375 47 638.287109375 47 544.438476562 19.5 c 0
 450.58984375 -8 450.58984375 -8 330.58984375 -8 c 0
 274.58984375 -8 274.58984375 -8 224.294921875 -4 c 0
 174 0 174 0 151.705078125 4 c 0
 129.41015625 8 l 0
 155.68359375 157 l 0
 359.68359375 157 l 0
 521.68359375 157 521.68359375 157 620.670898438 242 c 0
 719.659179688 327 719.659179688 327 754.748046875 526 c 0
 860.015625 1123 l 0
 390.015625 1123 l 0
 417.698242188 1280 l 0
EndSplineSet
EndChar

StartChar: K
Encoding: 75 75 92
Width: 2048
Flags: H
LayerCount: 2
Fore
SplineSet
957.698242188 1280 m 0
 1153.69824219 1280 l 0
 597.079101562 681 l 0
 960 0 l 0
 752 0 l 0
 410.849609375 640 l 0
 298 0 l 0
 128 0 l 0
 353.698242188 1280 l 0
 523.698242188 1280 l 0
 422.133789062 704 l 0
 957.698242188 1280 l 0
EndSplineSet
EndChar

StartChar: M
Encoding: 77 77 93
Width: 2048
Flags: H
LayerCount: 2
Fore
SplineSet
289.698242188 1280 m 0
 446.698242188 1280 l 0
 640.366210938 728 l 0
 1028.69824219 1280 l 0
 1185.69824219 1280 l 0
 960 0 l 0
 803 0 l 0
 938.418945312 768 l 0
 997.55859375 1024 l 0
 833.418945312 768 l 0
 653.279296875 512 l 0
 551.279296875 512 l 0
 461.418945312 768 l 0
 387.55859375 1024 l 0
 356.418945312 768 l 0
 221 0 l 0
 64 0 l 0
 289.698242188 1280 l 0
EndSplineSet
EndChar

StartChar: N
Encoding: 78 78 94
Width: 2048
Flags: H
LayerCount: 2
Fore
SplineSet
321.698242188 1280 m 0
 525.698242188 1280 l 0
 741.279296875 512 l 0
 807.139648438 256 l 0
 848.279296875 512 l 0
 983.698242188 1280 l 0
 1153.69824219 1280 l 0
 928 0 l 0
 723 0 l 0
 508.418945312 768 l 0
 442.55859375 1024 l 0
 401.418945312 768 l 0
 266 0 l 0
 96 0 l 0
 321.698242188 1280 l 0
EndSplineSet
EndChar

StartChar: O
Encoding: 79 79 95
Width: 2048
Flags: H
LayerCount: 2
Fore
SplineSet
712.836914062 1139 m 0
 651.836914062 1139 651.836914062 1139 601.751953125 1113 c 0
 551.666992188 1087 551.666992188 1087 508.1171875 1030 c 0
 464.56640625 973 464.56640625 973 429.874023438 875.5 c 0
 395.182617188 778 395.182617188 778 370.849609375 640 c 0
 346.516601562 502 346.516601562 502 346.82421875 404.5 c 0
 347.1328125 307 347.1328125 307 370.58203125 250 c 0
 394.03125 193 394.03125 193 434.946289062 167 c 0
 475.862304688 141 475.862304688 141 536.862304688 141 c 0
 597.862304688 141 597.862304688 141 647.946289062 167 c 0
 698.03125 193 698.03125 193 741.58203125 250 c 0
 785.1328125 307 785.1328125 307 819.82421875 404.5 c 0
 854.516601562 502 854.516601562 502 878.849609375 640 c 0
 903.182617188 778 903.182617188 778 902.874023438 875.5 c 0
 902.56640625 973 902.56640625 973 879.1171875 1030 c 0
 855.666992188 1087 855.666992188 1087 814.751953125 1113 c 0
 773.836914062 1139 773.836914062 1139 712.836914062 1139 c 0
192.849609375 640 m 0
 224.764648438 821 224.764648438 821 276.922851562 949.5 c 0
 329.080078125 1078 329.080078125 1078 399.8046875 1153 c 0
 470.529296875 1228 470.529296875 1228 553.524414062 1262 c 0
 636.51953125 1296 636.51953125 1296 740.51953125 1296 c 0
 844.51953125 1296 844.51953125 1296 915.524414062 1262 c 0
 986.529296875 1228 986.529296875 1228 1030.8046875 1153 c 0
 1075.08007812 1078 1075.08007812 1078 1081.92285156 949.5 c 0
 1088.76464844 821 1088.76464844 821 1056.84960938 640 c 0
 1024.93457031 459 1024.93457031 459 972.776367188 330.5 c 0
 920.618164062 202 920.618164062 202 849.893554688 127 c 0
 779.168945312 52 779.168945312 52 696.173828125 18 c 0
 613.178710938 -16 613.178710938 -16 509.178710938 -16 c 0
 405.178710938 -16 405.178710938 -16 334.173828125 18 c 0
 263.168945312 52 263.168945312 52 218.893554688 127 c 0
 174.618164062 202 174.618164062 202 167.776367188 330.5 c 0
 160.934570312 459 160.934570312 459 192.849609375 640 c 0
EndSplineSet
EndChar

StartChar: P
Encoding: 80 80 96
Width: 2048
Flags: H
LayerCount: 2
Fore
SplineSet
528.015625 1123 m 0
 447.962890625 669 l 0
 617.962890625 669 l 0
 744.962890625 669 744.962890625 669 829.21875 730 c 0
 913.474609375 791 913.474609375 791 931.989257812 896 c 0
 950.502929688 1001 950.502929688 1001 915.758789062 1062 c 0
 881.015625 1123 881.015625 1123 802.015625 1123 c 0
 528.015625 1123 l 0
385.698242188 1280 m 0
 829.698242188 1280 l 0
 986.698242188 1280 986.698242188 1280 1060.03710938 1177 c 0
 1133.375 1074 1133.375 1074 1101.98925781 896 c 0
 1070.60253906 718 1070.60253906 718 933.44140625 615 c 0
 796.279296875 512 796.279296875 512 590.279296875 512 c 0
 420.279296875 512 l 0
 330 0 l 0
 160 0 l 0
 385.698242188 1280 l 0
EndSplineSet
EndChar

StartChar: Q
Encoding: 81 81 97
Width: 2048
Flags: H
LayerCount: 2
Fore
SplineSet
712.836914062 1139 m 0
 546.836914062 1139 546.836914062 1139 465.321289062 1042.5 c 0
 383.805664062 946 383.805664062 946 340.900390625 697 c 0
 302.40234375 473 302.40234375 473 335.975585938 377 c 0
 369.547851562 281 369.547851562 281 494.903320312 266 c 0
 570.900390625 697 l 0
 698.900390625 697 l 0
 622.903320312 266 l 0
 753.547851562 281 753.547851562 281 821.475585938 377 c 0
 889.40234375 473 889.40234375 473 928.900390625 697 c 0
 972.805664062 946 972.805664062 946 925.821289062 1042.5 c 0
 878.836914062 1139 878.836914062 1139 712.836914062 1139 c 0
740.51953125 1296 m 0
 1000.51953125 1296 1000.51953125 1296 1079.15625 1163.5 c 0
 1157.79296875 1031 1157.79296875 1031 1098.90039062 697 c 0
 1044.94433594 391 1044.94433594 391 936.9921875 258 c 0
 829.041015625 125 829.041015625 125 615.690429688 106 c 0
 569.31640625 -157 l 0
 399.31640625 -157 l 0
 445.690429688 106 l 0
 239.041015625 125 239.041015625 125 177.9921875 258 c 0
 116.944335938 391 116.944335938 391 170.900390625 697 c 0
 229.79296875 1031 229.79296875 1031 355.15625 1163.5 c 0
 480.51953125 1296 480.51953125 1296 740.51953125 1296 c 0
EndSplineSet
EndChar

StartChar: R
Encoding: 82 82 98
Width: 2048
Flags: H
LayerCount: 2
Fore
SplineSet
496.015625 1123 m 0
 433.418945312 768 l 0
 603.418945312 768 l 0
 737.418945312 768 737.418945312 768 814.6484375 809 c 0
 891.877929688 850 891.877929688 850 908.805664062 946 c 0
 925.556640625 1041 925.556640625 1041 889.286132812 1082 c 0
 853.015625 1123 853.015625 1123 770.015625 1123 c 0
 496.015625 1123 l 0
353.698242188 1280 m 0
 797.698242188 1280 l 0
 964.698242188 1280 964.698242188 1280 1037.62109375 1203 c 0
 1110.54394531 1126 1110.54394531 1126 1078.80566406 946 c 0
 1035.42871094 700 1035.42871094 700 798.143554688 636 c 0
 960 0 l 0
 775 0 l 0
 619.735351562 611 l 0
 405.735351562 611 l 0
 298 0 l 0
 128 0 l 0
 353.698242188 1280 l 0
EndSplineSet
EndChar

StartChar: S
Encoding: 83 83 99
Width: 2048
Flags: H
LayerCount: 2
Fore
SplineSet
879.109375 1288 m 0
 946.109375 1288 946.109375 1288 1006.40429688 1284 c 0
 1066.69824219 1280 1066.69824219 1280 1093.49316406 1276 c 0
 1120.28808594 1272 l 0
 1094.015625 1123 l 0
 850.015625 1123 l 0
 672.015625 1123 672.015625 1123 572.521484375 1080.5 c 0
 473.02734375 1038 473.02734375 1038 455.571289062 939 c 0
 447.107421875 891 447.107421875 891 463.083007812 854 c 0
 479.059570312 817 479.059570312 817 512.151367188 792 c 0
 545.243164062 767 545.243164062 767 591.127929688 746.5 c 0
 637.013671875 726 637.013671875 726 687.663085938 707 c 0
 738.3125 688 738.3125 688 788.786132812 668 c 0
 839.259765625 648 839.259765625 648 883.734375 619.5 c 0
 928.208984375 591 928.208984375 591 959.2734375 554.5 c 0
 990.336914062 518 990.336914062 518 1003.22753906 463.5 c 0
 1016.11816406 409 1016.11816406 409 1004.12792969 341 c 0
 980.67578125 208 980.67578125 208 910.951171875 133 c 0
 841.2265625 58 841.2265625 58 708.908203125 25 c 0
 576.58984375 -8 576.58984375 -8 350.58984375 -8 c 0
 280.58984375 -8 280.58984375 -8 217.294921875 -4 c 0
 154 0 154 0 125.705078125 4 c 0
 97.41015625 8 l 0
 123.68359375 157 l 0
 379.68359375 157 l 0
 612.68359375 157 612.68359375 157 710.236328125 197 c 0
 807.7890625 237 807.7890625 237 826.127929688 341 c 0
 834.590820312 389 834.590820312 389 818.615234375 426 c 0
 802.639648438 463 802.639648438 463 769.547851562 488 c 0
 736.456054688 513 736.456054688 513 690.5703125 533.5 c 0
 644.685546875 554 644.685546875 554 594.03515625 573 c 0
 543.385742188 592 543.385742188 592 492.912109375 612 c 0
 442.438476562 632 442.438476562 632 397.963867188 660.5 c 0
 353.489257812 689 353.489257812 689 322.424804688 725.5 c 0
 291.361328125 762 291.361328125 762 278.470703125 816.5 c 0
 265.581054688 871 265.581054688 871 277.571289062 939 c 0
 310.720703125 1127 310.720703125 1127 462.415039062 1207.5 c 0
 614.109375 1288 614.109375 1288 879.109375 1288 c 0
EndSplineSet
EndChar

StartChar: T
Encoding: 84 84 100
Width: 2048
Flags: H
LayerCount: 2
Fore
SplineSet
289.698242188 1280 m 0
 1185.69824219 1280 l 0
 1158.015625 1123 l 0
 795.015625 1123 l 0
 597 0 l 0
 427 0 l 0
 625.015625 1123 l 0
 262.015625 1123 l 0
 289.698242188 1280 l 0
EndSplineSet
EndChar

StartChar: U
Encoding: 85 85 101
Width: 2048
Flags: H
LayerCount: 2
Fore
SplineSet
321.698242188 1280 m 0
 491.698242188 1280 l 0
 367.564453125 576 l 0
 324.364257812 331 324.364257812 331 361.11328125 236 c 0
 397.862304688 141 397.862304688 141 536.862304688 141 c 0
 675.862304688 141 675.862304688 141 746.11328125 236 c 0
 816.364257812 331 816.364257812 331 859.564453125 576 c 0
 983.698242188 1280 l 0
 1153.69824219 1280 l 0
 1029.56445312 576 l 0
 999.588867188 406 999.588867188 406 959.104492188 295.5 c 0
 918.620117188 185 918.620117188 185 856.6015625 114 c 0
 794.58203125 43 794.58203125 43 711.380859375 13.5 c 0
 628.178710938 -16 628.178710938 -16 509.178710938 -16 c 0
 390.178710938 -16 390.178710938 -16 317.380859375 13.5 c 0
 244.58203125 43 244.58203125 43 207.6015625 114 c 0
 170.620117188 185 170.620117188 185 169.104492188 295.5 c 0
 167.588867188 406 167.588867188 406 197.564453125 576 c 0
 321.698242188 1280 l 0
EndSplineSet
EndChar

StartChar: V
Encoding: 86 86 102
Width: 2048
Flags: H
LayerCount: 2
Fore
SplineSet
257.698242188 1280 m 0
 434.698242188 1280 l 0
 544.419921875 354 l 0
 543.209960938 177 l 0
 604.419921875 354 l 0
 1040.69824219 1280 l 0
 1217.69824219 1280 l 0
 614 0 l 0
 410 0 l 0
 257.698242188 1280 l 0
EndSplineSet
EndChar

StartChar: W
Encoding: 87 87 103
Width: 2048
Flags: H
LayerCount: 2
Fore
SplineSet
257.698242188 1280 m 0
 414.698242188 1280 l 0
 310.200195312 245 l 0
 596.418945312 768 l 0
 698.418945312 768 l 0
 800.200195312 245 l 0
 1060.69824219 1280 l 0
 1217.69824219 1280 l 0
 896 0 l 0
 692 0 l 0
 597.6953125 486 l 0
 332 0 l 0
 128 0 l 0
 257.698242188 1280 l 0
EndSplineSet
EndChar

StartChar: X
Encoding: 88 88 104
Width: 2048
Flags: H
LayerCount: 2
Fore
SplineSet
257.698242188 1280 m 0
 455.698242188 1280 l 0
 651.297851562 790 l 0
 1019.69824219 1280 l 0
 1217.69824219 1280 l 0
 723.849609375 640 l 0
 992 0 l 0
 794 0 l 0
 598.400390625 490 l 0
 230 0 l 0
 32 0 l 0
 525.849609375 640 l 0
 257.698242188 1280 l 0
EndSplineSet
EndChar

StartChar: Y
Encoding: 89 89 105
Width: 2048
Flags: H
LayerCount: 2
Fore
SplineSet
257.698242188 1280 m 0
 448.698242188 1280 l 0
 635.428710938 700 l 0
 1026.69824219 1280 l 0
 1217.69824219 1280 l 0
 687.279296875 512 l 0
 597 0 l 0
 427 0 l 0
 517.279296875 512 l 0
 257.698242188 1280 l 0
EndSplineSet
EndChar

StartChar: Z
Encoding: 90 90 106
Width: 2048
Flags: H
LayerCount: 2
Fore
SplineSet
1121.69824219 1280 m 0
 1094.015625 1123 l 0
 310.68359375 157 l 0
 955.68359375 157 l 0
 928 0 l 0
 96 0 l 0
 123.68359375 157 l 0
 907.015625 1123 l 0
 326.015625 1123 l 0
 353.698242188 1280 l 0
 1121.69824219 1280 l 0
EndSplineSet
EndChar

StartChar: bracketleft
Encoding: 91 91 107
Width: 2048
Flags: H
LayerCount: 2
Fore
SplineSet
1047.69824219 1280 m 0
 737.698242188 1280 l 0
 494.543945312 -99 l 0
 804.543945312 -99 l 0
 776.860351562 -256 l 0
 296.860351562 -256 l 0
 595.381835938 1437 l 0
 1075.38183594 1437 l 0
 1047.69824219 1280 l 0
EndSplineSet
EndChar

StartChar: bracketright
Encoding: 93 93 108
Width: 2048
Flags: H
LayerCount: 2
Fore
SplineSet
427.698242188 1280 m 0
 455.381835938 1437 l 0
 935.381835938 1437 l 0
 636.860351562 -256 l 0
 156.860351562 -256 l 0
 184.543945312 -99 l 0
 494.543945312 -99 l 0
 737.698242188 1280 l 0
 427.698242188 1280 l 0
EndSplineSet
EndChar

StartChar: asciicircum
Encoding: 94 94 109
Width: 2048
Flags: H
LayerCount: 2
Fore
SplineSet
635.698242188 1280 m 0
 839.698242188 1280 l 0
 1072.84960938 640 l 0
 879.849609375 640 l 0
 707.899414062 1111 l 0
 369.849609375 640 l 0
 176.849609375 640 l 0
 635.698242188 1280 l 0
EndSplineSet
EndChar

StartChar: underscore
Encoding: 95 95 110
Width: 2048
Flags: H
LayerCount: 2
Fore
SplineSet
67.5439453125 -99 m 0
 921.543945312 -99 l 0
 893.860351562 -256 l 0
 39.8603515625 -256 l 0
 67.5439453125 -99 l 0
EndSplineSet
EndChar

StartChar: grave
Encoding: 96 96 111
Width: 2048
Flags: H
LayerCount: 2
Fore
SplineSet
476.189453125 1141 m 0
 617.348632812 1261 l 0
 906.107421875 891 l 0
 783.76953125 787 l 0
 476.189453125 1141 l 0
EndSplineSet
EndChar

StartChar: a
Encoding: 97 97 112
Width: 2048
Flags: H
LayerCount: 2
Fore
SplineSet
528.349609375 433 m 0
 449.349609375 433 449.349609375 433 398.912109375 405 c 0
 348.475585938 377 348.475585938 377 339.834960938 328 c 0
 325.905273438 249 325.905273438 249 363.293945312 203 c 0
 400.68359375 157 400.68359375 157 479.68359375 157 c 0
 667.68359375 157 l 0
 716.68359375 157 716.68359375 157 738.974609375 178.5 c 0
 761.265625 200 761.265625 200 771.139648438 256 c 0
 802.349609375 433 l 0
 528.349609375 433 l 0
597.969726562 1032 m 0
 867.969726562 1032 867.969726562 1032 960.009765625 958.5 c 0
 1052.04980469 885 1052.04980469 885 1018.72363281 696 c 0
 941.139648438 256 l 0
 915.749023438 112 915.749023438 112 849.874023438 56 c 0
 784 0 784 0 640 0 c 0
 452 0 l 0
 294 0 294 0 218.516601562 88 c 0
 143.033203125 176 143.033203125 176 169.834960938 328 c 0
 191.346679688 450 191.346679688 450 294.778320312 520.5 c 0
 398.208984375 591 398.208984375 591 556.208984375 591 c 0
 830.208984375 591 l 0
 848.723632812 696 l 0
 865.651367188 792 865.651367188 792 804.763671875 829.5 c 0
 743.875976562 867 743.875976562 867 568.875976562 867 c 0
 376.875976562 867 l 0
 403.1484375 1016 l 0
 478.969726562 1032 478.969726562 1032 597.969726562 1032 c 0
EndSplineSet
EndChar

StartChar: b
Encoding: 98 98 113
Width: 2048
Flags: H
LayerCount: 2
Fore
SplineSet
664.875976562 867 m 0
 554.875976562 867 554.875976562 867 441.530273438 814 c 0
 343.139648438 256 l 0
 335.028320312 210 335.028320312 210 353.356445312 183.5 c 0
 371.68359375 157 371.68359375 157 411.68359375 157 c 0
 495.68359375 157 l 0
 622.68359375 157 622.68359375 157 714.168945312 259 c 0
 805.654296875 361 805.654296875 361 836.51171875 536 c 0
 863.666015625 690 863.666015625 690 817.770507812 778.5 c 0
 771.875976562 867 771.875976562 867 664.875976562 867 c 0
353.698242188 1280 m 0
 523.698242188 1280 l 0
 470.624023438 979 l 0
 583.55859375 1024 583.55859375 1024 692.55859375 1024 c 0
 877.55859375 1024 877.55859375 1024 961.959960938 893 c 0
 1046.36132812 762 1046.36132812 762 1006.51171875 536 c 0
 962.782226562 288 962.782226562 288 818.390625 144 c 0
 674 0 674 0 468 0 c 0
 384 0 l 0
 240 0 240 0 193.874023438 56 c 0
 147.749023438 112 147.749023438 112 173.139648438 256 c 0
 353.698242188 1280 l 0
EndSplineSet
EndChar

StartChar: c
Encoding: 99 99 114
Width: 2048
Flags: H
LayerCount: 2
Fore
SplineSet
823.969726562 1032 m 0
 884.969726562 1032 884.969726562 1032 939.763671875 1028 c 0
 994.55859375 1024 994.55859375 1024 1018.85351562 1020 c 0
 1043.1484375 1016 l 0
 1016.87597656 867 l 0
 794.875976562 867 l 0
 627.875976562 867 627.875976562 867 514.536132812 771.5 c 0
 401.197265625 676 401.197265625 676 372.279296875 512 c 0
 338.600585938 321 338.600585938 321 416.142578125 239 c 0
 493.68359375 157 493.68359375 157 669.68359375 157 c 0
 891.68359375 157 l 0
 865.41015625 8 l 0
 777.58984375 -8 777.58984375 -8 640.58984375 -8 c 0
 542.58984375 -8 542.58984375 -8 466.499023438 8.5 c 0
 390.408203125 25 390.408203125 25 330.108398438 63 c 0
 269.80859375 101 269.80859375 101 235.30078125 160.5 c 0
 200.791992188 220 200.791992188 220 191.396484375 308.5 c 0
 182.001953125 397 182.001953125 397 202.279296875 512 c 0
 244.421875 751 244.421875 751 414.6953125 891.5 c 0
 584.969726562 1032 584.969726562 1032 823.969726562 1032 c 0
EndSplineSet
EndChar

StartChar: d
Encoding: 100 100 115
Width: 2048
Flags: H
LayerCount: 2
Fore
SplineSet
664.875976562 867 m 0
 557.875976562 867 557.875976562 867 478.390625 765 c 0
 398.905273438 663 398.905273438 663 368.047851562 488 c 0
 340.893554688 334 340.893554688 334 398.788085938 245.5 c 0
 456.68359375 157 456.68359375 157 583.68359375 157 c 0
 667.68359375 157 l 0
 707.68359375 157 707.68359375 157 735.356445312 183.5 c 0
 763.028320312 210 763.028320312 210 771.139648438 256 c 0
 869.530273438 814 l 0
 774.875976562 867 774.875976562 867 664.875976562 867 c 0
1121.69824219 1280 m 0
 941.139648438 256 l 0
 915.749023438 112 915.749023438 112 849.874023438 56 c 0
 784 0 784 0 640 0 c 0
 556 0 l 0
 350 0 350 0 254.098632812 131 c 0
 158.197265625 262 158.197265625 262 198.047851562 488 c 0
 241.776367188 736 241.776367188 736 374.66796875 880 c 0
 507.55859375 1024 507.55859375 1024 692.55859375 1024 c 0
 801.55859375 1024 801.55859375 1024 898.624023438 979 c 0
 951.698242188 1280 l 0
 1121.69824219 1280 l 0
EndSplineSet
EndChar

StartChar: e
Encoding: 101 101 116
Width: 2048
Flags: H
LayerCount: 2
Fore
SplineSet
846.208984375 591 m 0
 858.375976562 660 l 0
 876.537109375 763 876.537109375 763 825.6171875 823 c 0
 774.696289062 883 774.696289062 883 667.696289062 883 c 0
 622.696289062 883 622.696289062 883 582.875976562 867 c 0
 543.0546875 851 543.0546875 851 515.969726562 825 c 0
 488.885742188 799 488.885742188 799 466.918945312 768 c 0
 444.953125 737 444.953125 737 431.987304688 706 c 0
 419.020507812 675 419.020507812 675 409.936523438 649 c 0
 400.8515625 623 400.8515625 623 397.530273438 607 c 0
 394.208984375 591 l 0
 846.208984375 591 l 0
559.58984375 -8 m 0
 351.58984375 -8 351.58984375 -8 255.686523438 131.5 c 0
 159.784179688 271 159.784179688 271 202.279296875 512 c 0
 245.126953125 755 245.126953125 755 379.25390625 897.5 c 0
 513.379882812 1040 513.379882812 1040 695.379882812 1040 c 0
 877.379882812 1040 877.379882812 1040 968.306640625 937.5 c 0
 1059.23339844 835 1059.23339844 835 1028.37597656 660 c 0
 1016.20898438 591 l 0
 1000.51660156 502 1000.51660156 502 957.432617188 467.5 c 0
 914.349609375 433 914.349609375 433 818.349609375 433 c 0
 366.349609375 433 l 0
 365.291992188 427 365.291992188 427 364.028320312 417 c 0
 362.764648438 407 362.764648438 407 363.240234375 378.5 c 0
 363.71484375 350 363.71484375 350 368.129882812 324 c 0
 372.545898438 298 372.545898438 298 387.403320312 266 c 0
 402.260742188 234 402.260742188 234 425.705078125 211 c 0
 449.149414062 188 449.149414062 188 491.416015625 172.5 c 0
 533.68359375 157 533.68359375 157 588.68359375 157 c 0
 859.68359375 157 l 0
 833.41015625 8 l 0
 726.58984375 -8 726.58984375 -8 559.58984375 -8 c 0
EndSplineSet
EndChar

StartChar: f
Encoding: 102 102 117
Width: 2048
Flags: H
LayerCount: 2
Fore
SplineSet
1152.28808594 1272 m 0
 1126.015625 1123 l 0
 918.015625 1123 l 0
 794.015625 1123 794.015625 1123 745.049804688 1083.5 c 0
 696.084960938 1044 696.084960938 1044 675.102539062 925 c 0
 1091.10253906 925 l 0
 1063.41894531 768 l 0
 647.418945312 768 l 0
 512 0 l 0
 342 0 l 0
 477.418945312 768 l 0
 231.418945312 768 l 0
 259.102539062 925 l 0
 505.102539062 925 l 0
 523.79296875 1031 523.79296875 1031 551.930664062 1097 c 0
 580.068359375 1163 580.068359375 1163 630.915039062 1207.5 c 0
 681.76171875 1252 681.76171875 1252 756.935546875 1270 c 0
 832.109375 1288 832.109375 1288 947.109375 1288 c 0
 1004.109375 1288 1004.109375 1288 1055.40429688 1284 c 0
 1106.69824219 1280 1106.69824219 1280 1129.49316406 1276 c 0
 1152.28808594 1272 l 0
EndSplineSet
EndChar

StartChar: g
Encoding: 103 103 118
Width: 2048
Flags: H
LayerCount: 2
Fore
SplineSet
708.875976562 867 m 0
 581.875976562 867 581.875976562 867 497.35546875 804.5 c 0
 412.834960938 742 412.834960938 742 393.791015625 634 c 0
 375.629882812 531 375.629882812 531 426.7265625 472 c 0
 477.823242188 413 477.823242188 413 584.823242188 413 c 0
 798.823242188 413 l 0
 861.418945312 768 l 0
 869.530273438 814 869.530273438 814 851.203125 840.5 c 0
 832.875976562 867 832.875976562 867 792.875976562 867 c 0
 708.875976562 867 l 0
736.55859375 1024 m 0
 820.55859375 1024 l 0
 964.55859375 1024 964.55859375 1024 1010.68457031 968 c 0
 1056.81054688 912 1056.81054688 912 1031.41894531 768 c 0
 917.159179688 120 l 0
 881.365234375 -83 881.365234375 -83 742.407226562 -173.5 c 0
 603.44921875 -264 603.44921875 -264 369.44921875 -264 c 0
 316.44921875 -264 316.44921875 -264 269.155273438 -260 c 0
 221.860351562 -256 221.860351562 -256 201.065429688 -252 c 0
 180.270507812 -248 l 0
 206.543945312 -99 l 0
 398.543945312 -99 l 0
 550.543945312 -99 550.543945312 -99 638.448242188 -48.5 c 0
 726.352539062 2 726.352539062 2 747.159179688 120 c 0
 771.139648438 256 l 0
 557.139648438 256 l 0
 372.139648438 256 372.139648438 256 282.537109375 357.5 c 0
 192.934570312 459 192.934570312 459 223.791015625 634 c 0
 255.706054688 815 255.706054688 815 393.1328125 919.5 c 0
 530.55859375 1024 530.55859375 1024 736.55859375 1024 c 0
EndSplineSet
EndChar

StartChar: h
Encoding: 104 104 119
Width: 2048
Flags: H
LayerCount: 2
Fore
SplineSet
353.698242188 1280 m 0
 523.698242188 1280 l 0
 470.624023438 979 l 0
 583.55859375 1024 583.55859375 1024 692.55859375 1024 c 0
 880.55859375 1024 880.55859375 1024 963.659179688 939.5 c 0
 1046.75976562 855 1046.75976562 855 1012.0234375 658 c 0
 896 0 l 0
 726 0 l 0
 842.0234375 658 l 0
 858.948242188 771 858.948242188 771 813.912109375 819 c 0
 768.875976562 867 768.875976562 867 664.875976562 867 c 0
 554.875976562 867 554.875976562 867 441.530273438 814 c 0
 298 0 l 0
 128 0 l 0
 353.698242188 1280 l 0
EndSplineSet
EndChar

StartChar: j
Encoding: 106 106 120
Width: 2048
Flags: H
LayerCount: 2
Fore
SplineSet
355.102539062 925 m 0
 963.102539062 925 l 0
 821.159179688 120 l 0
 784.659179688 -87 784.659179688 -87 646.5546875 -175.5 c 0
 508.44921875 -264 508.44921875 -264 273.44921875 -264 c 0
 220.44921875 -264 220.44921875 -264 173.155273438 -260 c 0
 125.860351562 -256 125.860351562 -256 105.065429688 -252 c 0
 84.2705078125 -248 l 0
 110.543945312 -99 l 0
 302.543945312 -99 l 0
 454.543945312 -99 454.543945312 -99 542.448242188 -48.5 c 0
 630.352539062 2 630.352539062 2 651.159179688 120 c 0
 765.418945312 768 l 0
 327.418945312 768 l 0
 355.102539062 925 l 0
771.2734375 1374 m 0
 1072.2734375 1374 l 0
 1039.4765625 1188 l 0
 738.4765625 1188 l 0
 771.2734375 1374 l 0
EndSplineSet
EndChar

StartChar: k
Encoding: 107 107 121
Width: 2048
Flags: H
LayerCount: 2
Fore
SplineSet
353.698242188 1280 m 0
 523.698242188 1280 l 0
 413.670898438 656 l 0
 852.55859375 1024 l 0
 1076.55859375 1024 l 0
 602.556640625 627 l 0
 960 0 l 0
 764 0 l 0
 408.028320312 624 l 0
 298 0 l 0
 128 0 l 0
 353.698242188 1280 l 0
EndSplineSet
EndChar

StartChar: m
Encoding: 109 109 122
Width: 2048
Flags: H
LayerCount: 2
Fore
SplineSet
508.969726562 1032 m 0
 549.969726562 1032 549.969726562 1032 583.235351562 1025 c 0
 616.500976562 1018 616.500976562 1018 635.649414062 1007.5 c 0
 654.797851562 997 654.797851562 997 667.53515625 987 c 0
 680.271484375 977 680.271484375 977 685.037109375 970 c 0
 689.802734375 963 l 0
 693.33203125 966 693.33203125 966 699.125 970.5 c 0
 704.918945312 975 704.918945312 975 724.53515625 987 c 0
 744.150390625 999 744.150390625 999 765.237304688 1008 c 0
 786.32421875 1017 786.32421875 1017 817.147460938 1024.5 c 0
 847.969726562 1032 847.969726562 1032 878.969726562 1032 c 0
 1001.96972656 1032 1001.96972656 1032 1059.71484375 962.5 c 0
 1117.45996094 893 1117.45996094 893 1095.41894531 768 c 0
 960 0 l 0
 803 0 l 0
 938.418945312 768 l 0
 948.822265625 827 948.822265625 827 926.229492188 860.5 c 0
 903.63671875 894 903.63671875 894 854.63671875 894 c 0
 825.63671875 894 825.63671875 894 797.020507812 882 c 0
 768.404296875 870 768.404296875 870 754.288085938 858 c 0
 740.172851562 846 l 0
 591 0 l 0
 433 0 l 0
 568.418945312 768 l 0
 578.646484375 826 578.646484375 826 556.641601562 860 c 0
 534.63671875 894 534.63671875 894 484.63671875 894 c 0
 455.63671875 894 455.63671875 894 427.020507812 882 c 0
 398.404296875 870 398.404296875 870 384.288085938 858 c 0
 370.172851562 846 l 0
 221 0 l 0
 64 0 l 0
 229.041992188 936 l 0
 233.747070312 940 233.747070312 940 242.393554688 946.5 c 0
 251.040039062 953 251.040039062 953 280.44921875 969.5 c 0
 309.858398438 986 309.858398438 986 340.5625 998.5 c 0
 371.266601562 1011 371.266601562 1011 417.118164062 1021.5 c 0
 462.969726562 1032 462.969726562 1032 508.969726562 1032 c 0
EndSplineSet
EndChar

StartChar: n
Encoding: 110 110 123
Width: 2048
Flags: H
LayerCount: 2
Fore
SplineSet
896 0 m 0
 726 0 l 0
 842.0234375 658 l 0
 863.358398438 779 863.358398438 779 818.02734375 831 c 0
 772.696289062 883 772.696289062 883 667.696289062 883 c 0
 608.696289062 883 608.696289062 883 553.256835938 872 c 0
 497.817382812 861 497.817382812 861 471.877929688 850 c 0
 445.938476562 839 l 0
 298 0 l 0
 128 0 l 0
 293.041992188 936 l 0
 299.747070312 940 299.747070312 940 312.481445312 947 c 0
 325.215820312 954 325.215820312 954 366.389648438 972 c 0
 407.563476562 990 407.563476562 990 451.532226562 1004 c 0
 495.500976562 1018 495.500976562 1018 562.440429688 1029 c 0
 629.379882812 1040 629.379882812 1040 695.379882812 1040 c 0
 883.379882812 1040 883.379882812 1040 965.86328125 952 c 0
 1048.34667969 864 1048.34667969 864 1012.0234375 658 c 0
 896 0 l 0
EndSplineSet
EndChar

StartChar: p
Encoding: 112 112 124
Width: 2048
Flags: H
LayerCount: 2
Fore
SplineSet
536.875976562 867 m 0
 496.875976562 867 496.875976562 867 469.203125 840.5 c 0
 441.530273438 814 441.530273438 814 433.418945312 768 c 0
 370.823242188 413 l 0
 540.823242188 413 l 0
 667.823242188 413 667.823242188 413 752.34375 475.5 c 0
 836.864257812 538 836.864257812 538 855.907226562 646 c 0
 874.069335938 749 874.069335938 749 822.97265625 808 c 0
 771.875976562 867 771.875976562 867 664.875976562 867 c 0
 536.875976562 867 l 0
564.55859375 1024 m 0
 692.55859375 1024 l 0
 877.55859375 1024 877.55859375 1024 967.162109375 922.5 c 0
 1056.76464844 821 1056.76464844 821 1025.90722656 646 c 0
 993.9921875 465 993.9921875 465 856.565429688 360.5 c 0
 719.139648438 256 719.139648438 256 513.139648438 256 c 0
 343.139648438 256 l 0
 252.860351562 -256 l 0
 82.8603515625 -256 l 0
 263.418945312 768 l 0
 288.810546875 912 288.810546875 912 354.684570312 968 c 0
 420.55859375 1024 420.55859375 1024 564.55859375 1024 c 0
EndSplineSet
EndChar

StartChar: q
Encoding: 113 113 125
Width: 2048
Flags: H
LayerCount: 2
Fore
SplineSet
708.875976562 867 m 0
 581.875976562 867 581.875976562 867 497.35546875 804.5 c 0
 412.834960938 742 412.834960938 742 393.791015625 634 c 0
 375.629882812 531 375.629882812 531 426.7265625 472 c 0
 477.823242188 413 477.823242188 413 584.823242188 413 c 0
 798.823242188 413 l 0
 861.418945312 768 l 0
 869.530273438 814 869.530273438 814 851.203125 840.5 c 0
 832.875976562 867 832.875976562 867 792.875976562 867 c 0
 708.875976562 867 l 0
736.55859375 1024 m 0
 820.55859375 1024 l 0
 964.55859375 1024 964.55859375 1024 1010.68457031 968 c 0
 1056.81054688 912 1056.81054688 912 1031.41894531 768 c 0
 850.860351562 -256 l 0
 680.860351562 -256 l 0
 771.139648438 256 l 0
 557.139648438 256 l 0
 372.139648438 256 372.139648438 256 282.537109375 357.5 c 0
 192.934570312 459 192.934570312 459 223.791015625 634 c 0
 255.706054688 815 255.706054688 815 393.1328125 919.5 c 0
 530.55859375 1024 530.55859375 1024 736.55859375 1024 c 0
EndSplineSet
EndChar

StartChar: r
Encoding: 114 114 126
Width: 2048
Flags: H
LayerCount: 2
Fore
SplineSet
1044.0234375 658 m 0
 874.0234375 658 l 0
 895.358398438 779 895.358398438 779 850.02734375 831 c 0
 804.696289062 883 804.696289062 883 699.696289062 883 c 0
 640.696289062 883 640.696289062 883 585.256835938 872 c 0
 529.817382812 861 529.817382812 861 503.877929688 850 c 0
 477.938476562 839 l 0
 330 0 l 0
 160 0 l 0
 325.041992188 936 l 0
 331.747070312 940 331.747070312 940 344.481445312 947 c 0
 357.215820312 954 357.215820312 954 398.389648438 972 c 0
 439.563476562 990 439.563476562 990 483.532226562 1004 c 0
 527.500976562 1018 527.500976562 1018 594.440429688 1029 c 0
 661.379882812 1040 661.379882812 1040 727.379882812 1040 c 0
 915.379882812 1040 915.379882812 1040 997.86328125 952 c 0
 1080.34667969 864 1080.34667969 864 1044.0234375 658 c 0
EndSplineSet
EndChar

StartChar: s
Encoding: 115 115 127
Width: 2048
Flags: H
LayerCount: 2
Fore
SplineSet
815.969726562 1032 m 0
 869.969726562 1032 869.969726562 1032 918.763671875 1028 c 0
 967.55859375 1024 967.55859375 1024 989.353515625 1020 c 0
 1011.1484375 1016 l 0
 984.875976562 867 l 0
 786.875976562 867 l 0
 629.875976562 867 629.875976562 867 542.821289062 835.5 c 0
 455.766601562 804 455.766601562 804 442.895507812 731 c 0
 435.13671875 687 435.13671875 687 460.758789062 656.5 c 0
 486.380859375 626 486.380859375 626 533.294921875 608.5 c 0
 580.208984375 591 580.208984375 591 638.064453125 576 c 0
 695.919921875 561 695.919921875 561 752.981445312 541.5 c 0
 810.04296875 522 810.04296875 522 855.017578125 493.5 c 0
 899.9921875 465 899.9921875 465 921.999023438 414 c 0
 944.006835938 363 944.006835938 363 931.487304688 292 c 0
 902.922851562 130 902.922851562 130 760.755859375 61 c 0
 618.58984375 -8 618.58984375 -8 368.58984375 -8 c 0
 310.58984375 -8 310.58984375 -8 258.794921875 -4 c 0
 207 0 207 0 184.205078125 4 c 0
 161.41015625 8 l 0
 187.68359375 157 l 0
 397.68359375 157 l 0
 564.68359375 157 564.68359375 157 656.649414062 188 c 0
 748.615234375 219 748.615234375 219 761.487304688 292 c 0
 768.364257812 331 768.364257812 331 748.977539062 360 c 0
 729.590820312 389 729.590820312 389 692.912109375 405 c 0
 656.233398438 421 656.233398438 421 607.966796875 436.5 c 0
 559.700195312 452 559.700195312 452 508.815429688 464 c 0
 457.931640625 476 457.931640625 476 410.72265625 497.5 c 0
 363.513671875 519 363.513671875 519 328.862304688 546.5 c 0
 294.211914062 574 294.211914062 574 278.086914062 621.5 c 0
 261.962890625 669 261.962890625 669 272.895507812 731 c 0
 301.459960938 893 301.459960938 893 438.71484375 962.5 c 0
 575.969726562 1032 575.969726562 1032 815.969726562 1032 c 0
EndSplineSet
EndChar

StartChar: t
Encoding: 116 116 128
Width: 2048
Flags: H
LayerCount: 2
Fore
SplineSet
865.41015625 8 m 0
 801.58984375 -8 801.58984375 -8 702.58984375 -8 c 0
 524.58984375 -8 524.58984375 -8 445.637695312 66 c 0
 366.685546875 140 366.685546875 140 397.366210938 314 c 0
 477.418945312 768 l 0
 199.418945312 768 l 0
 227.102539062 925 l 0
 505.102539062 925 l 0
 567.698242188 1280 l 0
 737.698242188 1280 l 0
 675.102539062 925 l 0
 1091.10253906 925 l 0
 1063.41894531 768 l 0
 647.418945312 768 l 0
 567.366210938 314 l 0
 552.37890625 229 552.37890625 229 595.03125 193 c 0
 637.68359375 157 637.68359375 157 731.68359375 157 c 0
 891.68359375 157 l 0
 865.41015625 8 l 0
EndSplineSet
EndChar

StartChar: u
Encoding: 117 117 129
Width: 2048
Flags: H
LayerCount: 2
Fore
SplineSet
308.55859375 1024 m 0
 478.55859375 1024 l 0
 362.536132812 366 l 0
 341.200195312 245 341.200195312 245 386.53125 193 c 0
 431.862304688 141 431.862304688 141 536.862304688 141 c 0
 595.862304688 141 595.862304688 141 651.301757812 152 c 0
 706.741210938 163 706.741210938 163 732.680664062 174 c 0
 758.620117188 185 l 0
 906.55859375 1024 l 0
 1076.55859375 1024 l 0
 911.516601562 88 l 0
 904.811523438 84 904.811523438 84 892.077148438 77 c 0
 879.342773438 70 879.342773438 70 838.168945312 52 c 0
 796.995117188 34 796.995117188 34 753.026367188 20 c 0
 709.057617188 6 709.057617188 6 642.118164062 -5 c 0
 575.178710938 -16 575.178710938 -16 509.178710938 -16 c 0
 321.178710938 -16 321.178710938 -16 238.6953125 72 c 0
 156.211914062 160 156.211914062 160 192.536132812 366 c 0
 308.55859375 1024 l 0
EndSplineSet
EndChar

StartChar: v
Encoding: 118 118 130
Width: 2048
Flags: H
LayerCount: 2
Fore
SplineSet
244.55859375 1024 m 0
 423.55859375 1024 l 0
 531.419921875 354 l 0
 543.209960938 177 l 0
 617.419921875 354 l 0
 961.55859375 1024 l 0
 1140.55859375 1024 l 0
 614 0 l 0
 410 0 l 0
 244.55859375 1024 l 0
EndSplineSet
EndChar

StartChar: w
Encoding: 119 119 131
Width: 2048
Flags: H
LayerCount: 2
Fore
SplineSet
212.55859375 1024 m 0
 370.55859375 1024 l 0
 332.419921875 354 l 0
 317.209960938 177 l 0
 390.419921875 354 l 0
 596.418945312 768 l 0
 698.418945312 768 l 0
 758.419921875 354 l 0
 769.209960938 177 l 0
 816.419921875 354 l 0
 1014.55859375 1024 l 0
 1172.55859375 1024 l 0
 870 0 l 0
 666 0 l 0
 606.51171875 536 l 0
 358 0 l 0
 154 0 l 0
 212.55859375 1024 l 0
EndSplineSet
EndChar

StartChar: x
Encoding: 120 120 132
Width: 2048
Flags: H
LayerCount: 2
Fore
SplineSet
244.55859375 1024 m 0
 449.55859375 1024 l 0
 624.849609375 640 l 0
 935.55859375 1024 l 0
 1140.55859375 1024 l 0
 705.279296875 512 l 0
 960 0 l 0
 755 0 l 0
 579.709960938 384 l 0
 269 0 l 0
 64 0 l 0
 499.279296875 512 l 0
 244.55859375 1024 l 0
EndSplineSet
EndChar

StartChar: y
Encoding: 121 121 133
Width: 2048
Flags: H
LayerCount: 2
Fore
SplineSet
308.55859375 1024 m 0
 478.55859375 1024 l 0
 397.80078125 566 l 0
 385.282226562 495 385.282226562 495 435.552734375 454 c 0
 485.823242188 413 485.823242188 413 584.823242188 413 c 0
 798.823242188 413 l 0
 906.55859375 1024 l 0
 1076.55859375 1024 l 0
 917.159179688 120 l 0
 880.659179688 -87 880.659179688 -87 742.5546875 -175.5 c 0
 604.44921875 -264 604.44921875 -264 369.44921875 -264 c 0
 316.44921875 -264 316.44921875 -264 269.155273438 -260 c 0
 221.860351562 -256 221.860351562 -256 201.065429688 -252 c 0
 180.270507812 -248 l 0
 206.543945312 -99 l 0
 398.543945312 -99 l 0
 550.543945312 -99 550.543945312 -99 638.448242188 -48.5 c 0
 726.352539062 2 726.352539062 2 747.159179688 120 c 0
 771.139648438 256 l 0
 557.139648438 256 l 0
 379.139648438 256 379.139648438 256 290.774414062 339 c 0
 202.41015625 422 202.41015625 422 227.80078125 566 c 0
 308.55859375 1024 l 0
EndSplineSet
EndChar

StartChar: z
Encoding: 122 122 134
Width: 2048
Flags: H
LayerCount: 2
Fore
SplineSet
340.55859375 1024 m 0
 1044.55859375 1024 l 0
 1016.87597656 867 l 0
 352.68359375 157 l 0
 923.68359375 157 l 0
 896 0 l 0
 128 0 l 0
 155.68359375 157 l 0
 819.875976562 867 l 0
 312.875976562 867 l 0
 340.55859375 1024 l 0
EndSplineSet
EndChar

StartChar: braceleft
Encoding: 123 123 135
Width: 2048
Flags: H
LayerCount: 2
Fore
SplineSet
1047.69824219 1280 m 0
 929.698242188 1280 l 0
 840.698242188 1280 840.698242188 1280 780.118164062 1228.5 c 0
 719.537109375 1177 719.537109375 1177 703.84375 1088 c 0
 645.962890625 669 l 0
 497.141601562 653 l 0
 475.100585938 528 l 0
 618.279296875 512 l 0
 528.3984375 93 l 0
 509.881835938 5 509.881835938 5 553.212890625 -47 c 0
 596.543945312 -99 596.543945312 -99 686.543945312 -99 c 0
 804.543945312 -99 l 0
 776.860351562 -256 l 0
 658.860351562 -256 l 0
 490.860351562 -256 490.860351562 -256 410.346679688 -162.5 c 0
 329.833007812 -69 329.833007812 -69 358.3984375 93 c 0
 472.279296875 512 l 0
 154.279296875 512 l 0
 181.962890625 669 l 0
 499.962890625 669 l 0
 533.84375 1088 l 0
 546.703125 1246 546.703125 1246 666.04296875 1341.5 c 0
 785.381835938 1437 785.381835938 1437 957.381835938 1437 c 0
 1075.38183594 1437 l 0
 1047.69824219 1280 l 0
EndSplineSet
EndChar

StartChar: braceright
Encoding: 125 125 136
Width: 2048
Flags: H
LayerCount: 2
Fore
SplineSet
427.698242188 1280 m 0
 455.381835938 1437 l 0
 573.381835938 1437 l 0
 745.381835938 1437 745.381835938 1437 831.04296875 1341.5 c 0
 916.703125 1246 916.703125 1246 873.84375 1088 c 0
 759.962890625 669 l 0
 1077.96289062 669 l 0
 1050.27929688 512 l 0
 732.279296875 512 l 0
 698.3984375 93 l 0
 669.833007812 -69 669.833007812 -69 556.346679688 -162.5 c 0
 442.860351562 -256 442.860351562 -256 274.860351562 -256 c 0
 156.860351562 -256 l 0
 184.543945312 -99 l 0
 302.543945312 -99 l 0
 392.543945312 -99 392.543945312 -99 454.212890625 -47 c 0
 515.881835938 5 515.881835938 5 528.3984375 93 c 0
 586.279296875 512 l 0
 735.100585938 528 l 0
 757.141601562 653 l 0
 613.962890625 669 l 0
 703.84375 1088 l 0
 719.537109375 1177 719.537109375 1177 677.118164062 1228.5 c 0
 634.698242188 1280 634.698242188 1280 545.698242188 1280 c 0
 427.698242188 1280 l 0
EndSplineSet
EndChar

StartChar: asciitilde
Encoding: 126 126 137
Width: 2048
Flags: H
LayerCount: 2
Fore
SplineSet
130.828125 379 m 0
 166.974609375 584 166.974609375 584 212.252929688 699 c 0
 257.530273438 814 257.530273438 814 322.111328125 865.5 c 0
 386.69140625 917 386.69140625 917 486.69140625 917 c 0
 550.69140625 917 550.69140625 917 594.517578125 899 c 0
 638.34375 881 638.34375 881 658.23046875 852 c 0
 678.1171875 823 678.1171875 823 689.004882812 785.5 c 0
 699.892578125 748 699.892578125 748 699.427734375 708.5 c 0
 698.962890625 669 698.962890625 669 700.350585938 631.5 c 0
 701.73828125 594 701.73828125 594 705.125 565 c 0
 708.51171875 536 708.51171875 536 724.836914062 518 c 0
 741.163085938 500 741.163085938 500 771.163085938 500 c 0
 845.163085938 500 845.163085938 500 889.091796875 587.5 c 0
 933.020507812 675 933.020507812 675 972.87109375 901 c 0
 1118.87109375 901 l 0
 1082.72363281 696 1082.72363281 696 1037.44628906 581 c 0
 992.16796875 466 992.16796875 466 927.67578125 415 c 0
 863.182617188 364 863.182617188 364 763.182617188 364 c 0
 699.182617188 364 699.182617188 364 655.356445312 382 c 0
 611.53125 400 611.53125 400 591.64453125 429 c 0
 571.7578125 458 571.7578125 458 560.870117188 495.5 c 0
 549.982421875 533 549.982421875 533 550.447265625 572.5 c 0
 550.912109375 612 550.912109375 612 549.524414062 649.5 c 0
 548.13671875 687 548.13671875 687 544.75 716 c 0
 541.36328125 745 541.36328125 745 525.037109375 763 c 0
 508.7109375 781 508.7109375 781 478.7109375 781 c 0
 404.7109375 781 404.7109375 781 360.694335938 693 c 0
 316.677734375 605 316.677734375 605 276.828125 379 c 0
 130.828125 379 l 0
EndSplineSet
EndChar
